<svg width="369" height="288" viewBox="0 0 369 288" fill="none" xmlns="http://www.w3.org/2000/svg">
<path d="M60.6 288C39.2667 288 23.1333 282 12.2 270C1.26667 257.733 -4.2 240.267 -4.2 217.6V201.6H37.4V220.8C37.4 238.933 45 248 60.2 248C67.6667 248 73.2667 245.867 77 241.6C81 237.067 83 229.867 83 220C83 208.267 80.3333 198 75 189.2C69.6667 180.133 59.8 169.333 45.4 156.8C27.2667 140.8 14.6 126.4 7.4 113.6C0.2 100.533 -3.4 85.8667 -3.4 69.6C-3.4 47.4667 2.2 30.4 13.4 18.4C24.6 6.13332 40.8667 -1.52588e-05 62.2 -1.52588e-05C83.2667 -1.52588e-05 99.1333 6.13332 109.8 18.4C120.733 30.4 126.2 47.7333 126.2 70.4V82H84.6V67.6C84.6 58 82.7333 51.0667 79 46.8C75.2667 42.2667 69.8 40 62.6 40C47.9333 40 40.6 48.9333 40.6 66.8C40.6 76.9333 43.2667 86.4 48.6 95.2C54.2 104 64.2 114.667 78.6 127.2C97 143.2 109.667 157.733 116.6 170.8C123.533 183.867 127 199.2 127 216.8C127 239.733 121.267 257.333 109.8 269.6C98.6 281.867 82.2 288 60.6 288ZM152.228 3.99998H196.228V284H152.228V3.99998ZM263.181 3.99998H322.781L368.381 284H324.381L316.381 228.4V229.2H266.381L258.381 284H217.581L263.181 3.99998ZM311.181 191.2L291.581 52.8H290.781L271.581 191.2H311.181Z" fill="#C6FFB5" fill-opacity="0.63"/>
</svg>
