<svg width="383" height="383" viewBox="0 0 383 383" fill="none" xmlns="http://www.w3.org/2000/svg">
<path d="M147.725 69L129.669 105.112H68.2783C54.2741 105.112 43 116.386 43 130.39V289.283C43 303.287 54.2741 314.561 68.2783 314.561H313.839C327.844 314.561 339.118 303.287 339.118 289.283V130.39C339.118 116.386 327.844 105.112 313.839 105.112H252.449L234.393 69H147.725ZM191.059 126.779C236.717 126.779 274.116 164.179 274.116 209.836C274.116 255.494 236.717 292.894 191.059 292.894C145.401 292.894 108.001 255.494 108.001 209.836C108.001 164.179 145.402 126.779 191.059 126.779ZM191.059 162.891C164.918 162.891 144.113 183.695 144.113 209.836C144.113 235.977 164.919 256.782 191.059 256.782C217.2 256.782 238.004 235.978 238.004 209.836C238.004 183.695 217.2 162.891 191.059 162.891Z" fill="#0070C0"/>
</svg>
