<svg width="229" height="229" viewBox="0 0 229 229" fill="none" xmlns="http://www.w3.org/2000/svg">
<path d="M54.125 192.125C51.6813 192.125 49.6343 191.297 47.984 189.641C46.3338 187.985 45.5057 185.938 45.5 183.5V174.875H36.875V140.375C36.875 137.931 37.703 135.884 39.359 134.234C41.015 132.584 43.062 131.756 45.5 131.75H54.125V71.375C54.125 61.8875 57.5031 53.7656 64.2594 47.0094C71.0156 40.2531 79.1375 36.875 88.625 36.875C98.1125 36.875 106.234 40.2531 112.991 47.0094C119.747 53.7656 123.125 61.8875 123.125 71.375V157.625C123.125 162.369 124.816 166.431 128.197 169.812C131.578 173.193 135.637 174.881 140.375 174.875C145.113 174.869 149.175 173.182 152.562 169.812C155.949 166.443 157.636 162.38 157.625 157.625V97.25H149C146.556 97.25 144.509 96.422 142.859 94.766C141.209 93.11 140.381 91.063 140.375 88.625V54.125H149V45.5C149 43.0563 149.828 41.0093 151.484 39.359C153.14 37.7088 155.187 36.8807 157.625 36.875H174.875C177.319 36.875 179.369 37.703 181.025 39.359C182.681 41.015 183.506 43.062 183.5 45.5V54.125H192.125V88.625C192.125 91.0687 191.297 93.1186 189.641 94.7746C187.985 96.4306 185.938 97.2557 183.5 97.25H174.875V157.625C174.875 167.113 171.497 175.234 164.741 181.991C157.984 188.747 149.863 192.125 140.375 192.125C130.887 192.125 122.766 188.747 116.009 181.991C109.253 175.234 105.875 167.113 105.875 157.625V71.375C105.875 66.6312 104.187 62.5717 100.812 59.1965C97.4369 55.8212 93.3745 54.1307 88.625 54.125C83.8755 54.1193 79.816 55.8097 76.4465 59.1965C73.077 62.5832 71.3865 66.6428 71.375 71.375V131.75H80C82.4437 131.75 84.4936 132.578 86.1496 134.234C87.8056 135.89 88.6307 137.937 88.625 140.375V174.875H80V183.5C80 185.944 79.172 187.994 77.516 189.65C75.86 191.306 73.813 192.131 71.375 192.125H54.125Z" fill="#C6FFB5"/>
</svg>
