<svg width="77" height="77" viewBox="0 0 77 77" fill="none" xmlns="http://www.w3.org/2000/svg">
<path d="M49.4808 12.3642C50.7045 12.3642 51.6876 11.326 51.6876 10.1573V4.41391C51.6876 3.19016 50.7045 2.20703 49.4808 2.20703C48.257 2.20703 47.2739 3.19016 47.2739 4.41391V10.1573C47.2739 11.326 48.2584 12.3642 49.4808 12.3642ZM34.0601 17.4957C34.9374 18.3729 36.3729 18.3454 37.1979 17.4957C38.0215 16.6432 38.0476 15.2352 37.1979 14.4102L33.1031 10.2893C32.6888 9.87993 32.1298 9.65038 31.5473 9.65038C30.9649 9.65038 30.4059 9.87993 29.9915 10.2893C29.5821 10.7036 29.3526 11.2626 29.3526 11.8451C29.3526 12.4276 29.5821 12.9865 29.9915 13.4009L34.0601 17.4957ZM61.7664 17.4957C62.59 18.3454 64.0255 18.3729 64.9014 17.4957L68.9714 13.4009C69.8211 12.5484 69.795 11.1404 68.9714 10.2893C68.557 9.87993 67.998 9.65038 67.4156 9.65038C66.8331 9.65038 66.2741 9.87993 65.8597 10.2893L61.765 14.4102C60.9139 15.2352 60.94 16.6445 61.765 17.4957M56.3131 41.1594C60.2209 38.5263 62.6409 34.459 62.6409 29.7785C62.6481 28.0469 62.3128 26.331 61.6543 24.7295C60.9957 23.128 60.0269 21.6726 58.8037 20.447C57.5804 19.2214 56.1268 18.2499 54.5265 17.5884C52.9263 16.9268 51.211 16.5883 49.4794 16.5923C44.6669 16.5923 40.4924 19.1704 38.2869 23.0259C39.4034 24.1685 40.3604 25.4184 41.1579 26.9612C49.9304 27.6789 55.5954 33.1294 56.3131 41.1594ZM11.0344 55.8087H39.8035C47.3275 55.8087 53.1768 50.0928 53.1768 42.7283C53.1768 35.416 47.2216 29.8858 39.2714 29.8322C36.1598 23.8757 30.6295 20.4464 24.1959 20.4464C15.554 20.4464 8.21562 27.1468 7.41813 35.8945C2.8985 37.2489 0 41.0783 0 45.7588C0 51.7139 4.4935 55.8087 11.0344 55.8087ZM69.0511 31.9868H74.7931C75.9894 31.9868 76.9739 31.0037 77 29.7799C77 28.5562 75.9894 27.573 74.7931 27.573H69.0498C67.8535 27.573 66.8429 28.5575 66.8429 29.7799C66.8429 31.0037 67.8535 31.9868 69.0498 31.9868M65.8597 49.2967C66.2776 49.7015 66.838 49.9256 67.4198 49.9205C68.0016 49.9153 68.558 49.6814 68.9686 49.2692C69.7936 48.4194 69.8211 47.01 68.9686 46.1589L64.8477 42.0903C63.998 41.2667 62.6147 41.2405 61.7636 42.0903C61.3543 42.5046 61.1247 43.0636 61.1247 43.6461C61.1247 44.2286 61.3543 44.7875 61.7636 45.2019L65.8597 49.2967ZM31.9852 68.4394L35.4406 62.4307C35.9191 61.6057 35.6538 60.6748 34.8563 60.2224C34.0588 59.7439 33.154 60.0107 32.6755 60.8343L29.1926 66.8705C28.7403 67.6405 28.9534 68.5714 29.777 69.0499C30.1518 69.2569 30.5927 69.3088 31.0053 69.1944C31.4179 69.08 31.7692 68.8085 31.9839 68.438M10.8185 68.4642L14.2752 62.4554C14.7799 61.6304 14.5145 60.6995 13.717 60.2485C12.9195 59.77 11.9886 60.0354 11.5101 60.859L8.02725 66.8953C7.57487 67.6653 7.81413 68.5962 8.63912 69.076C9.40913 69.5009 10.3675 69.2355 10.8185 68.4642ZM40.3054 75.9084L43.7621 69.9272C44.2406 69.1022 43.9753 68.1713 43.1764 67.6928C42.3789 67.2404 41.4755 67.5072 40.997 68.3047L37.4866 74.367C37.0604 75.1109 37.2749 76.0418 38.0985 76.5203C38.896 76.9727 39.853 76.7059 40.3054 75.9084ZM19.1414 75.9359L22.5968 69.9533C23.0766 69.1283 22.8374 68.1974 22.0399 67.7189C21.2149 67.2679 20.3115 67.5333 19.833 68.3308L16.3488 74.3932C15.8978 75.137 16.137 76.0679 16.9345 76.5464C17.732 76.9988 18.689 76.7334 19.1414 75.9359Z" fill="#05BC58"/>
</svg>
