<svg width="383" height="383" viewBox="0 0 383 383" fill="none" xmlns="http://www.w3.org/2000/svg">
<g clip-path="url(#clip0_432_21)">
<path d="M54 278L156 159L241 244L326 142" stroke="#0070C0" stroke-width="12" stroke-linecap="round" stroke-linejoin="round"/>
<path d="M224 244C224 248.509 225.791 252.833 228.979 256.021C232.167 259.209 236.491 261 241 261C245.509 261 249.833 259.209 253.021 256.021C256.209 252.833 258 248.509 258 244C258 239.491 256.209 235.167 253.021 231.979C249.833 228.791 245.509 227 241 227C236.491 227 232.167 228.791 228.979 231.979C225.791 235.167 224 239.491 224 244ZM139 159C139 163.509 140.791 167.833 143.979 171.021C147.167 174.209 151.491 176 156 176C160.509 176 164.833 174.209 168.021 171.021C171.209 167.833 173 163.509 173 159C173 154.491 171.209 150.167 168.021 146.979C164.833 143.791 160.509 142 156 142C151.491 142 147.167 143.791 143.979 146.979C140.791 150.167 139 154.491 139 159ZM37 278C37 282.509 38.7911 286.833 41.9792 290.021C45.1673 293.209 49.4913 295 54 295C58.5087 295 62.8327 293.209 66.0208 290.021C69.2089 286.833 71 282.509 71 278C71 273.491 69.2089 269.167 66.0208 265.979C62.8327 262.791 58.5087 261 54 261C49.4913 261 45.1673 262.791 41.9792 265.979C38.7911 269.167 37 273.491 37 278ZM309 142C309 146.509 310.791 150.833 313.979 154.021C317.167 157.209 321.491 159 326 159C330.509 159 334.833 157.209 338.021 154.021C341.209 150.833 343 146.509 343 142C343 137.491 341.209 133.167 338.021 129.979C334.833 126.791 330.509 125 326 125C321.491 125 317.167 126.791 313.979 129.979C310.791 133.167 309 137.491 309 142Z" stroke="#0070C0" stroke-width="24" stroke-linecap="round" stroke-linejoin="round"/>
</g>
<defs>
<clipPath id="clip0_432_21">
<rect width="383" height="383" fill="white"/>
</clipPath>
</defs>
</svg>
