<svg width="383" height="383" viewBox="0 0 383 383" fill="none" xmlns="http://www.w3.org/2000/svg">
<mask id="mask0_432_7" style="mask-type:luminance" maskUnits="userSpaceOnUse" x="40" y="61" width="314" height="269">
<path d="M347.349 248.159C347.349 289.656 313.711 323.294 272.214 323.294C258.765 323.294 246.128 319.762 235.203 313.564C223.634 307.006 214.01 297.498 207.312 286.008C200.615 274.518 197.085 261.458 197.08 248.159C197.08 228.865 204.353 211.269 216.299 197.97C223.34 190.112 231.96 183.829 241.595 179.53C251.23 175.232 261.664 173.015 272.214 173.025C313.711 173.025 347.349 206.663 347.349 248.159Z" fill="white" stroke="white" stroke-width="13" stroke-linecap="round" stroke-linejoin="round"/>
<path d="M272.211 105.403V173.024C261.661 173.014 251.227 175.231 241.592 179.529C231.957 183.827 223.337 190.111 216.296 197.968C203.896 211.741 197.048 229.625 197.077 248.158C197.087 252.516 197.448 256.768 198.159 260.916C200.052 271.885 204.357 282.298 210.763 291.402C217.168 300.506 225.515 308.075 235.2 313.562C215.2 319.611 188.647 323.292 159.51 323.292C97.2688 323.292 46.8086 306.47 46.8086 285.725V105.403" stroke="white" stroke-width="13" stroke-linecap="round" stroke-linejoin="round"/>
<path d="M272.211 105.404C272.211 126.148 221.751 142.971 159.51 142.971C97.2688 142.971 46.8086 126.148 46.8086 105.404C46.8086 84.6592 97.2688 67.8367 159.51 67.8367C221.751 67.8367 272.211 84.6592 272.211 105.404Z" fill="white" stroke="white" stroke-width="13" stroke-linecap="round" stroke-linejoin="round"/>
<path d="M46.8086 225.619C46.8086 246.364 97.2688 263.186 159.51 263.186C173.087 263.186 186.108 262.39 198.159 260.917M46.8086 165.512C46.8086 186.256 97.2688 203.079 159.51 203.079C180.217 203.079 199.624 201.216 216.296 197.97" stroke="white" stroke-width="13" stroke-linecap="round" stroke-linejoin="round"/>
<path d="M302.269 248.158H272.215V218.104" stroke="black" stroke-width="13" stroke-linecap="round" stroke-linejoin="round"/>
</mask>
<g mask="url(#mask0_432_7)">
<path d="M-28.2246 -47.2085H687.054V668.07H-28.2246V-47.2085Z" fill="#0070C0"/>
</g>
</svg>
