<svg width="105" height="105" viewBox="0 0 105 105" fill="none" xmlns="http://www.w3.org/2000/svg">
<rect width="105" height="105" rx="10" fill="#4CCD25"/>
<path d="M33.7083 72.375C32.9882 72.375 32.385 72.131 31.8987 71.643C31.4124 71.155 31.1684 70.5518 31.1667 69.8333V67.2917H28.625V57.125C28.625 56.4049 28.869 55.8016 29.357 55.3153C29.845 54.829 30.4482 54.585 31.1667 54.5833H33.7083V36.7917C33.7083 33.9958 34.7038 31.6024 36.6948 29.6115C38.6858 27.6205 41.0792 26.625 43.875 26.625C46.6708 26.625 49.0642 27.6205 51.0552 29.6115C53.0462 31.6024 54.0417 33.9958 54.0417 36.7917V62.2083C54.0417 63.6063 54.5398 64.8034 55.5362 65.7997C56.5325 66.796 57.7288 67.2934 59.125 67.2917C60.5212 67.29 61.7183 66.7927 62.7164 65.7997C63.7144 64.8068 64.2117 63.6096 64.2083 62.2083V44.4167H61.6667C60.9465 44.4167 60.3433 44.1727 59.857 43.6847C59.3707 43.1967 59.1267 42.5934 59.125 41.875V31.7083H61.6667V29.1667C61.6667 28.4465 61.9107 27.8433 62.3987 27.357C62.8867 26.8707 63.4899 26.6267 64.2083 26.625H69.2917C70.0118 26.625 70.6159 26.869 71.1039 27.357C71.5919 27.845 71.835 28.4482 71.8333 29.1667V31.7083H74.375V41.875C74.375 42.5951 74.131 43.1992 73.643 43.6872C73.155 44.1752 72.5518 44.4184 71.8333 44.4167H69.2917V62.2083C69.2917 65.0042 68.2962 67.3976 66.3052 69.3885C64.3142 71.3795 61.9208 72.375 59.125 72.375C56.3292 72.375 53.9358 71.3795 51.9448 69.3885C49.9538 67.3976 48.9583 65.0042 48.9583 62.2083V36.7917C48.9583 35.3938 48.461 34.1975 47.4664 33.2028C46.4717 32.2082 45.2746 31.71 43.875 31.7083C42.4754 31.7066 41.2791 32.2048 40.2862 33.2028C39.2932 34.2009 38.7951 35.3971 38.7917 36.7917V54.5833H41.3333C42.0535 54.5833 42.6575 54.8273 43.1455 55.3153C43.6335 55.8033 43.8767 56.4066 43.875 57.125V67.2917H41.3333V69.8333C41.3333 70.5535 41.0893 71.1575 40.6013 71.6455C40.1133 72.1335 39.5101 72.3767 38.7917 72.375H33.7083Z" fill="#C6FFB5"/>
</svg>
