<svg width="72" height="72" viewBox="0 0 72 72" fill="none" xmlns="http://www.w3.org/2000/svg">
<circle cx="36" cy="36" r="36" fill="white" fill-opacity="0.5"/>
<path fill-rule="evenodd" clip-rule="evenodd" d="M46.4375 25.1094V29.7972C46.4375 31.3066 41.5404 32.5316 35.5 32.5316C29.4596 32.5316 24.5625 31.3066 24.5625 29.7972V25.1094C24.5625 23.5993 29.4596 22.375 35.5 22.375C41.5404 22.375 46.4375 23.5993 46.4375 25.1094ZM25.0153 32.3748C26.3599 33.505 30.5453 34.3282 35.5 34.3282C40.4547 34.3282 44.6401 33.5043 45.9847 32.3748C46.2793 32.6227 46.4375 32.8852 46.4375 33.1565V37.8435C46.4375 39.3536 41.5404 40.5779 35.5 40.5779C29.4596 40.5779 24.5625 39.3536 24.5625 37.8435V33.1565C24.5625 32.8845 24.7207 32.6227 25.0153 32.3748ZM35.5 42.5583C30.5453 42.5583 26.3599 41.7344 25.0153 40.6049C24.7207 40.8528 24.5625 41.1153 24.5625 41.3858V46.0729C24.5625 47.583 29.4596 48.8073 35.5 48.8073C41.5404 48.8073 46.4375 47.583 46.4375 46.0729V41.3851C46.4375 41.1139 46.2793 40.8521 45.9847 40.6042C44.6401 41.7336 40.4547 42.5583 35.5 42.5583ZM41.5761 45.222C41.5795 45.3358 41.5599 45.4491 41.5187 45.5552C41.4774 45.6613 41.4153 45.758 41.336 45.8397C41.2567 45.9214 41.1618 45.9863 41.057 46.0306C40.9521 46.075 40.8394 46.0978 40.7256 46.0978C40.6117 46.0978 40.499 46.075 40.3942 46.0306C40.2893 45.9863 40.1944 45.9214 40.1151 45.8397C40.0358 45.758 39.9737 45.6613 39.9325 45.5552C39.8912 45.4491 39.8717 45.3358 39.875 45.222C39.8815 45.0007 39.9739 44.7907 40.1327 44.6364C40.2915 44.4822 40.5042 44.3959 40.7256 44.3959C40.9469 44.3959 41.1596 44.4822 41.3184 44.6364C41.4772 44.7907 41.5697 45.0007 41.5761 45.222ZM44.1282 45.222C44.242 45.2253 44.3553 45.2058 44.4614 45.1645C44.5675 45.1233 44.6643 45.0612 44.746 44.9819C44.8276 44.9025 44.8926 44.8076 44.9369 44.7028C44.9812 44.5979 45.0041 44.4853 45.0041 44.3714C45.0041 44.2576 44.9812 44.1449 44.9369 44.04C44.8926 43.9352 44.8276 43.8403 44.746 43.761C44.6643 43.6816 44.5675 43.6195 44.4614 43.5783C44.3553 43.537 44.242 43.5175 44.1282 43.5208C43.907 43.5273 43.6969 43.6198 43.5427 43.7786C43.3885 43.9374 43.3022 44.15 43.3022 44.3714C43.3022 44.5928 43.3885 44.8054 43.5427 44.9642C43.6969 45.123 43.907 45.2155 44.1282 45.222Z" fill="white"/>
</svg>
