<svg width="72" height="72" viewBox="0 0 72 72" fill="none" xmlns="http://www.w3.org/2000/svg">
<circle cx="36" cy="36" r="36" fill="white" fill-opacity="0.5"/>
<path d="M37.5413 15.1853V19.3095C45.6059 20.3099 51.833 27.1699 51.833 35.4999C51.833 42.0537 47.913 47.7499 42.1963 50.3633L37.5413 45.7083V55.9166H47.7497L45.2588 53.4258C51.6493 49.9345 55.9163 43.1766 55.9163 35.4999C55.9163 24.9241 47.8518 16.2062 37.5413 15.1853ZM33.458 15.0833C29.4768 15.4916 25.6997 17.0433 22.5963 19.5953L25.4955 22.4945C27.8132 20.7084 30.5586 19.561 33.458 19.1666V15.0833ZM19.5747 22.5966C17.043 25.6999 15.4913 29.477 15.083 33.4583H19.1663C19.5543 30.5591 20.6976 27.8028 22.4943 25.4958L19.5747 22.5966ZM23.2497 27.3333V31.4166H29.3747V33.4583H27.333C25.0872 33.4583 23.2497 35.2957 23.2497 37.5416V43.6666H33.458V39.5833H27.333V37.5416H29.3747C31.6409 37.5416 33.458 35.7245 33.458 33.4583V31.4166C33.458 30.3336 33.0278 29.295 32.262 28.5292C31.4963 27.7635 30.4576 27.3333 29.3747 27.3333H23.2497ZM35.4997 27.3333V37.5416H41.6247V43.6666H45.708V37.5416H47.7497V33.4583H45.708V27.3333H41.6247V33.4583H39.583V27.3333H35.4997ZM15.083 37.5416C15.4913 41.5228 17.0634 45.2999 19.6155 48.4032L22.5147 45.5041C20.7213 43.1885 19.5667 40.4429 19.1663 37.5416H15.083ZM25.5159 48.5053L22.5963 51.4045C25.6984 53.9372 29.4744 55.5059 33.458 55.9166V51.8332C30.5622 51.4486 27.821 50.2999 25.5159 48.5053Z" fill="white"/>
</svg>
