<svg width="82" height="81" viewBox="0 0 82 81" fill="none" xmlns="http://www.w3.org/2000/svg">
<rect width="82" height="81" rx="19" fill="#4CCD25"/>
<path d="M36.424 19.0005L31.6313 25.2063L33.6735 30.1021L21.0058 33.0764L21.8454 44.9087L21.795 45.4404L17 49.02V57.3894H20.4322L25.1287 49.1713L23.2663 35.8979L27.8873 34.813L28.2222 44.5832L28.3902 44.7166L32.3474 50.5529L30.5409 57.3892H35.9439L36.523 46.8219L30.0065 42.1638L29.7399 34.3778L37.062 32.6586L34.2518 25.9204L39.5958 19L36.424 19.0005ZM42.4193 19.0005L47.3773 29.3939L39.9356 35.7274L39.5013 35.7669L44.7451 46.9602L41.6773 57.3894H48.86L48.6292 44.3342L43.2817 36.5624L49.1355 31.5799L56.4564 34.6501L51.9563 47.4936L56.0449 57.2956L56.0638 57.3894H63.0277L55.1991 47.5856L56.64 41.2503L64.4038 46.7194V40.5645L57.5297 37.8584L59.4155 32.4765L49.2639 28.2197L44.8662 19.0004L42.4193 19.0005Z" fill="white"/>
<path d="M32.677 21.0693L17.6165 49.6693V57.6604H7L29.2205 21.0693H32.677Z" fill="white"/>
<path d="M67.2423 57.6604L48.7252 21.0693H51.6879L74.896 57.6604H67.2423Z" fill="white"/>
</svg>
