<svg width="229" height="229" viewBox="0 0 229 229" fill="none" xmlns="http://www.w3.org/2000/svg">
<g clip-path="url(#clip0_451_42)">
<path d="M95.4008 170.177V169.235C95.4008 162.239 91.036 156.141 85.5712 151.776C78.4384 146.087 73.2502 138.323 70.7247 129.556C68.1992 120.789 68.4611 111.454 71.4744 102.843C74.4877 94.2317 80.1032 86.77 87.5438 81.4907C94.9843 76.2114 103.882 73.3755 113.005 73.3755C122.128 73.3755 131.026 76.2114 138.467 81.4907C145.907 86.77 151.523 94.2317 154.536 102.843C157.549 111.454 157.811 120.789 155.286 129.556C152.76 138.323 147.572 146.087 140.439 151.776C134.966 156.149 130.601 162.239 130.601 169.235V170.177M95.4008 170.177V187.777C95.4008 190.11 96.3279 192.349 97.9782 193.999C99.6286 195.649 101.867 196.576 104.201 196.576H121.801C124.135 196.576 126.373 195.649 128.023 193.999C129.674 192.349 130.601 190.11 130.601 187.777V170.177M95.4008 170.177H130.601M183.401 117.377H192.201M42.6008 117.377H33.8008M113.001 46.9765V38.1765M162.782 67.5949L169.004 61.3733M63.228 67.5949L56.9976 61.3733M113.001 143.777V126.177" stroke="#C6FFB5" stroke-width="13" stroke-linecap="round" stroke-linejoin="round"/>
</g>
<defs>
<clipPath id="clip0_451_42">
<rect width="180" height="180" fill="white" transform="translate(23 32)"/>
</clipPath>
</defs>
</svg>
