<svg width="456" height="284" viewBox="0 0 456 284" fill="none" xmlns="http://www.w3.org/2000/svg">
<mask id="path-1-outside-1_576_25" maskUnits="userSpaceOnUse" x="-4" y="34" width="309" height="99" fill="black">
<rect fill="white" x="-4" y="34" width="309" height="99"/>
<path d="M-0.576 128V38.4H12.992V115.2H37.184V128H-0.576ZM91.42 128L88.476 108.16H73.884L70.94 128H57.372L72.22 38.4H90.396L105.244 128H91.42ZM75.676 95.104H86.684L81.18 57.6L75.676 95.104ZM147.34 129.28C134.412 129.28 125.452 120.064 125.452 107.264V104.064L138.508 102.656V105.984C138.508 112.512 141.836 116.48 147.212 116.48C152.588 116.48 155.916 113.152 155.916 107.904C155.916 102.272 153.612 98.176 143.5 88.576C130.06 75.904 126.22 68.992 126.22 59.136C126.22 45.824 133.9 37.12 146.828 37.12C159.756 37.12 167.436 45.824 167.436 59.264V61.568L154.38 62.976V60.416C154.38 53.504 151.692 49.92 146.956 49.92C142.22 49.92 139.532 52.864 139.532 58.496C139.532 64.128 142.348 68.224 151.948 77.824C165.004 90.88 169.228 97.408 169.228 107.264C169.228 120.064 160.268 129.28 147.34 129.28ZM193.574 128V38.4H232.102V51.2H207.142V76.16H226.982V88.96H207.142V115.2H232.102V128H193.574ZM300.793 128H286.713L276.857 91.008H269.817V128H256.249V38.4H277.497C290.425 38.4 298.745 46.848 298.745 59.776V69.632C298.745 77.952 295.289 84.352 289.401 87.936L300.793 128ZM269.817 51.2V78.208H276.857C282.105 78.208 285.177 75.136 285.177 69.888V59.52C285.177 54.272 282.105 51.2 276.857 51.2H269.817Z"/>
</mask>
<path d="M-0.576 128H-3.576V131H-0.576V128ZM-0.576 38.4V35.4H-3.576V38.4H-0.576ZM12.992 38.4H15.992V35.4H12.992V38.4ZM12.992 115.2H9.992V118.2H12.992V115.2ZM37.184 115.2H40.184V112.2H37.184V115.2ZM37.184 128V131H40.184V128H37.184ZM2.424 128V38.4H-3.576V128H2.424ZM-0.576 41.4H12.992V35.4H-0.576V41.4ZM9.992 38.4V115.2H15.992V38.4H9.992ZM12.992 118.2H37.184V112.2H12.992V118.2ZM34.184 115.2V128H40.184V115.2H34.184ZM37.184 125H-0.576V131H37.184V125ZM91.42 128L88.4525 128.44L88.8323 131H91.42V128ZM88.476 108.16L91.4435 107.72L91.0637 105.16H88.476V108.16ZM73.884 108.16V105.16H71.2963L70.9165 107.72L73.884 108.16ZM70.94 128V131H73.5277L73.9075 128.44L70.94 128ZM57.372 128L54.4124 127.51L53.8339 131H57.372V128ZM72.22 38.4V35.4H69.6762L69.2604 37.9095L72.22 38.4ZM90.396 38.4L93.3556 37.9095L92.9398 35.4H90.396V38.4ZM105.244 128V131H108.782L108.204 127.51L105.244 128ZM75.676 95.104L72.7078 94.6684L72.2036 98.104H75.676V95.104ZM86.684 95.104V98.104H90.1564L89.6522 94.6684L86.684 95.104ZM81.18 57.6L84.1482 57.1644H78.2118L81.18 57.6ZM94.3875 127.56L91.4435 107.72L85.5085 108.6L88.4525 128.44L94.3875 127.56ZM88.476 105.16H73.884V111.16H88.476V105.16ZM70.9165 107.72L67.9725 127.56L73.9075 128.44L76.8515 108.6L70.9165 107.72ZM70.94 125H57.372V131H70.94V125ZM60.3316 128.49L75.1796 38.8904L69.2604 37.9095L54.4124 127.51L60.3316 128.49ZM72.22 41.4H90.396V35.4H72.22V41.4ZM87.4364 38.8904L102.284 128.49L108.204 127.51L93.3556 37.9095L87.4364 38.8904ZM105.244 125H91.42V131H105.244V125ZM75.676 98.104H86.684V92.104H75.676V98.104ZM89.6522 94.6684L84.1482 57.1644L78.2118 58.0356L83.7158 95.5396L89.6522 94.6684ZM78.2118 57.1644L72.7078 94.6684L78.6442 95.5396L84.1482 58.0356L78.2118 57.1644ZM125.452 104.064L125.13 101.081L122.452 101.37V104.064H125.452ZM138.508 102.656H141.508V99.3151L138.186 99.6733L138.508 102.656ZM143.5 88.576L145.566 86.4003L145.558 86.3932L143.5 88.576ZM167.436 61.568L167.758 64.5507L170.436 64.2619V61.568H167.436ZM154.38 62.976H151.38V66.3169L154.702 65.9587L154.38 62.976ZM151.948 77.824L154.069 75.7027L151.948 77.824ZM147.34 126.28C141.612 126.28 136.93 124.252 133.682 120.964C130.431 117.672 128.452 112.949 128.452 107.264H122.452C122.452 114.379 124.953 120.664 129.414 125.18C133.878 129.7 140.14 132.28 147.34 132.28V126.28ZM128.452 107.264V104.064H122.452V107.264H128.452ZM125.774 107.047L138.83 105.639L138.186 99.6733L125.13 101.081L125.774 107.047ZM135.508 102.656V105.984H141.508V102.656H135.508ZM135.508 105.984C135.508 109.726 136.461 113.102 138.538 115.599C140.669 118.161 143.727 119.48 147.212 119.48V113.48C145.322 113.48 144.027 112.815 143.15 111.761C142.219 110.642 141.508 108.77 141.508 105.984H135.508ZM147.212 119.48C150.525 119.48 153.517 118.443 155.69 116.293C157.866 114.14 158.916 111.172 158.916 107.904H152.916C152.916 109.884 152.302 111.204 151.47 112.027C150.635 112.853 149.275 113.48 147.212 113.48V119.48ZM158.916 107.904C158.916 104.547 158.193 101.558 156.04 98.1318C153.986 94.8632 150.644 91.2217 145.566 86.4003L141.434 90.7517C146.468 95.5303 149.334 98.7368 150.96 101.324C152.487 103.754 152.916 105.629 152.916 107.904H158.916ZM145.558 86.3932C138.892 80.1083 134.83 75.4522 132.414 71.2929C130.067 67.2525 129.22 63.5903 129.22 59.136H123.22C123.22 64.5377 124.293 69.2595 127.226 74.3071C130.09 79.2358 134.668 84.3717 141.442 90.7588L145.558 86.3932ZM129.22 59.136C129.22 53.0445 130.972 48.3297 133.883 45.1682C136.766 42.0375 141.068 40.12 146.828 40.12V34.12C139.66 34.12 133.658 36.5545 129.469 41.1038C125.308 45.6223 123.22 51.9155 123.22 59.136H129.22ZM146.828 40.12C152.588 40.12 156.887 42.037 159.769 45.1796C162.681 48.3547 164.436 53.1016 164.436 59.264H170.436C170.436 51.9864 168.351 45.6613 164.191 41.1244C160.001 36.555 153.996 34.12 146.828 34.12V40.12ZM164.436 59.264V61.568H170.436V59.264H164.436ZM167.114 58.5853L154.058 59.9933L154.702 65.9587L167.758 64.5507L167.114 58.5853ZM157.38 62.976V60.416H151.38V62.976H157.38ZM157.38 60.416C157.38 56.6435 156.658 53.3011 154.881 50.826C152.993 48.1975 150.182 46.92 146.956 46.92V52.92C148.466 52.92 149.367 53.4345 150.007 54.326C150.758 55.3709 151.38 57.2765 151.38 60.416H157.38ZM146.956 46.92C143.945 46.92 141.178 47.879 139.213 50.1169C137.304 52.2921 136.532 55.248 136.532 58.496H142.532C142.532 56.112 143.104 54.7799 143.723 54.0751C144.286 53.433 145.231 52.92 146.956 52.92V46.92ZM136.532 58.496C136.532 65.539 140.348 70.467 149.827 79.9453L154.069 75.7027C144.348 65.981 142.532 62.7169 142.532 58.496H136.532ZM149.827 79.9453C156.339 86.4576 160.426 91.1308 162.909 95.2834C165.312 99.3021 166.228 102.864 166.228 107.264H172.228C172.228 101.808 171.032 97.1779 168.059 92.2046C165.166 87.3652 160.613 82.2464 154.069 75.7027L149.827 79.9453ZM166.228 107.264C166.228 112.949 164.249 117.672 160.998 120.964C157.75 124.252 153.068 126.28 147.34 126.28V132.28C154.54 132.28 160.802 129.7 165.266 125.18C169.727 120.664 172.228 114.379 172.228 107.264H166.228ZM193.574 128H190.574V131H193.574V128ZM193.574 38.4V35.4H190.574V38.4H193.574ZM232.102 38.4H235.102V35.4H232.102V38.4ZM232.102 51.2V54.2H235.102V51.2H232.102ZM207.142 51.2V48.2H204.142V51.2H207.142ZM207.142 76.16H204.142V79.16H207.142V76.16ZM226.982 76.16H229.982V73.16H226.982V76.16ZM226.982 88.96V91.96H229.982V88.96H226.982ZM207.142 88.96V85.96H204.142V88.96H207.142ZM207.142 115.2H204.142V118.2H207.142V115.2ZM232.102 115.2H235.102V112.2H232.102V115.2ZM232.102 128V131H235.102V128H232.102ZM196.574 128V38.4H190.574V128H196.574ZM193.574 41.4H232.102V35.4H193.574V41.4ZM229.102 38.4V51.2H235.102V38.4H229.102ZM232.102 48.2H207.142V54.2H232.102V48.2ZM204.142 51.2V76.16H210.142V51.2H204.142ZM207.142 79.16H226.982V73.16H207.142V79.16ZM223.982 76.16V88.96H229.982V76.16H223.982ZM226.982 85.96H207.142V91.96H226.982V85.96ZM204.142 88.96V115.2H210.142V88.96H204.142ZM207.142 118.2H232.102V112.2H207.142V118.2ZM229.102 115.2V128H235.102V115.2H229.102ZM232.102 125H193.574V131H232.102V125ZM300.793 128V131H304.765L303.679 127.179L300.793 128ZM286.713 128L283.814 128.772L284.408 131H286.713V128ZM276.857 91.008L279.756 90.2356L279.162 88.008H276.857V91.008ZM269.817 91.008V88.008H266.817V91.008H269.817ZM269.817 128V131H272.817V128H269.817ZM256.249 128H253.249V131H256.249V128ZM256.249 38.4V35.4H253.249V38.4H256.249ZM289.401 87.936L287.841 85.3734L285.891 86.5605L286.515 88.7565L289.401 87.936ZM269.817 51.2V48.2H266.817V51.2H269.817ZM269.817 78.208H266.817V81.208H269.817V78.208ZM300.793 125H286.713V131H300.793V125ZM289.612 127.228L279.756 90.2356L273.958 91.7804L283.814 128.772L289.612 127.228ZM276.857 88.008H269.817V94.008H276.857V88.008ZM266.817 91.008V128H272.817V91.008H266.817ZM269.817 125H256.249V131H269.817V125ZM259.249 128V38.4H253.249V128H259.249ZM256.249 41.4H277.497V35.4H256.249V41.4ZM277.497 41.4C283.293 41.4 287.793 43.2797 290.839 46.3522C293.888 49.4276 295.745 53.9655 295.745 59.776H301.745C301.745 52.6585 299.442 46.5084 295.099 42.1278C290.754 37.7443 284.629 35.4 277.497 35.4V41.4ZM295.745 59.776V69.632H301.745V59.776H295.745ZM295.745 69.632C295.745 77.0655 292.706 82.4123 287.841 85.3734L290.961 90.4986C297.872 86.2917 301.745 78.8385 301.745 69.632H295.745ZM286.515 88.7565L297.907 128.821L303.679 127.179L292.287 87.1155L286.515 88.7565ZM266.817 51.2V78.208H272.817V51.2H266.817ZM269.817 81.208H276.857V75.208H269.817V81.208ZM276.857 81.208C280.064 81.208 282.985 80.2585 285.106 78.1373C287.228 76.0161 288.177 73.0947 288.177 69.888H282.177C282.177 71.9293 281.591 73.1679 280.864 73.8947C280.137 74.6215 278.898 75.208 276.857 75.208V81.208ZM288.177 69.888V59.52H282.177V69.888H288.177ZM288.177 59.52C288.177 56.3133 287.228 53.3918 285.106 51.2707C282.985 49.1495 280.064 48.2 276.857 48.2V54.2C278.898 54.2 280.137 54.7865 280.864 55.5133C281.591 56.2401 282.177 57.4787 282.177 59.52H288.177ZM276.857 48.2H269.817V54.2H276.857V48.2Z" fill="white" mask="url(#path-1-outside-1_576_25)"/>
<mask id="path-3-outside-2_576_25" maskUnits="userSpaceOnUse" x="-7" y="164" width="463" height="99" fill="black">
<rect fill="white" x="-7" y="164" width="463" height="99"/>
<path d="M18.24 259.28C5.312 259.28 -3.648 250.064 -3.648 237.264V234.064L9.408 232.656V235.984C9.408 242.512 12.736 246.48 18.112 246.48C23.488 246.48 26.816 243.152 26.816 237.904C26.816 232.272 24.512 228.176 14.4 218.576C0.96 205.904 -2.88 198.992 -2.88 189.136C-2.88 175.824 4.8 167.12 17.728 167.12C30.656 167.12 38.336 175.824 38.336 189.264V191.568L25.28 192.976V190.416C25.28 183.504 22.592 179.92 17.856 179.92C13.12 179.92 10.432 182.864 10.432 188.496C10.432 194.128 13.248 198.224 22.848 207.824C35.904 220.88 40.128 227.408 40.128 237.264C40.128 250.064 31.168 259.28 18.24 259.28ZM84.57 259.28C71.898 259.28 63.322 250.576 63.322 238.032V188.368C63.322 175.824 71.898 167.12 84.57 167.12C97.242 167.12 105.818 175.824 105.818 188.368V198.864H92.506V188.368C92.506 183.12 89.306 179.92 84.698 179.92C80.09 179.92 76.89 183.12 76.89 188.368V238.032C76.89 243.28 80.09 246.48 84.698 246.48C89.306 246.48 92.506 243.28 92.506 238.032V225.232H105.818V238.032C105.818 250.576 97.242 259.28 84.57 259.28ZM160.72 258L157.776 238.16H143.184L140.24 258H126.672L141.52 168.4H159.696L174.544 258H160.72ZM144.976 225.104H155.984L150.48 187.6L144.976 225.104ZM197.824 258V168.4H212.8L230.08 228.56V168.4H243.392V258H229.056L211.136 200.656V258H197.824ZM270.999 258V168.4H285.975L303.255 228.56V168.4H316.567V258H302.231L284.311 200.656V258H270.999ZM344.174 258V168.4H382.702V181.2H357.742V206.16H377.582V218.96H357.742V245.2H382.702V258H344.174ZM451.393 258H437.313L427.457 221.008H420.417V258H406.849V168.4H428.097C441.025 168.4 449.345 176.848 449.345 189.776V199.632C449.345 207.952 445.889 214.352 440.001 217.936L451.393 258ZM420.417 181.2V208.208H427.457C432.705 208.208 435.777 205.136 435.777 199.888V189.52C435.777 184.272 432.705 181.2 427.457 181.2H420.417Z"/>
</mask>
<path d="M-3.648 234.064L-3.96966 231.081L-6.648 231.37V234.064H-3.648ZM9.408 232.656H12.408V229.315L9.08634 229.673L9.408 232.656ZM14.4 218.576L16.4655 216.4L16.458 216.393L14.4 218.576ZM38.336 191.568L38.6577 194.551L41.336 194.262V191.568H38.336ZM25.28 192.976H22.28V196.317L25.6017 195.959L25.28 192.976ZM22.848 207.824L24.9693 205.703L22.848 207.824ZM18.24 256.28C12.5118 256.28 7.82981 254.252 4.5824 250.964C1.33089 247.672 -0.648 242.949 -0.648 237.264H-6.648C-6.648 244.379 -4.14689 250.664 0.3136 255.18C4.77819 259.7 11.0402 262.28 18.24 262.28V256.28ZM-0.648 237.264V234.064H-6.648V237.264H-0.648ZM-3.32634 237.047L9.72967 235.639L9.08634 229.673L-3.96966 231.081L-3.32634 237.047ZM6.408 232.656V235.984H12.408V232.656H6.408ZM6.408 235.984C6.408 239.726 7.36101 243.102 9.43766 245.599C11.569 248.161 14.6265 249.48 18.112 249.48V243.48C16.2215 243.48 14.927 242.815 14.0503 241.761C13.119 240.642 12.408 238.77 12.408 235.984H6.408ZM18.112 249.48C21.4248 249.48 24.4168 248.443 26.5899 246.293C28.766 244.14 29.816 241.172 29.816 237.904H23.816C23.816 239.884 23.202 241.204 22.3701 242.027C21.5352 242.853 20.1752 243.48 18.112 243.48V249.48ZM29.816 237.904C29.816 234.547 29.0929 231.558 26.9401 228.132C24.886 224.863 21.544 221.222 16.4655 216.4L12.3345 220.752C17.368 225.53 20.234 228.737 21.8599 231.324C23.3871 233.754 23.816 235.629 23.816 237.904H29.816ZM16.458 216.393C9.79222 210.108 5.73043 205.452 3.31398 201.293C0.966575 197.253 0.120001 193.59 0.120001 189.136H-5.88C-5.88 194.538 -4.80657 199.259 -1.87398 204.307C0.989568 209.236 5.56778 214.372 12.342 220.759L16.458 216.393ZM0.120001 189.136C0.120001 183.044 1.8716 178.33 4.78288 175.168C7.66568 172.038 11.968 170.12 17.728 170.12V164.12C10.56 164.12 4.55832 166.554 0.369123 171.104C-3.7916 175.622 -5.88 181.916 -5.88 189.136H0.120001ZM17.728 170.12C23.4876 170.12 27.7871 172.037 30.6689 175.18C33.5805 178.355 35.336 183.102 35.336 189.264H41.336C41.336 181.986 39.2515 175.661 35.0911 171.124C30.9009 166.555 24.8964 164.12 17.728 164.12V170.12ZM35.336 189.264V191.568H41.336V189.264H35.336ZM38.0143 188.585L24.9583 189.993L25.6017 195.959L38.6577 194.551L38.0143 188.585ZM28.28 192.976V190.416H22.28V192.976H28.28ZM28.28 190.416C28.28 186.643 27.5583 183.301 25.7807 180.826C23.8929 178.197 21.0821 176.92 17.856 176.92V182.92C19.3659 182.92 20.2671 183.435 20.9073 184.326C21.6577 185.371 22.28 187.277 22.28 190.416H28.28ZM17.856 176.92C14.845 176.92 12.0778 177.879 10.1134 180.117C8.20406 182.292 7.432 185.248 7.432 188.496H13.432C13.432 186.112 14.0039 184.78 14.6226 184.075C15.1862 183.433 16.131 182.92 17.856 182.92V176.92ZM7.432 188.496C7.432 195.539 11.2484 200.467 20.7267 209.945L24.9693 205.703C15.2476 195.981 13.432 192.717 13.432 188.496H7.432ZM20.7267 209.945C27.239 216.458 31.3264 221.131 33.8091 225.283C36.2117 229.302 37.128 232.864 37.128 237.264H43.128C43.128 231.808 41.9323 227.178 38.9589 222.205C36.0656 217.365 31.513 212.246 24.9693 205.703L20.7267 209.945ZM37.128 237.264C37.128 242.949 35.1491 247.672 31.8976 250.964C28.6502 254.252 23.9682 256.28 18.24 256.28V262.28C25.4398 262.28 31.7018 259.7 36.1664 255.18C40.6269 250.664 43.128 244.379 43.128 237.264H37.128ZM105.818 198.864V201.864H108.818V198.864H105.818ZM92.506 198.864H89.506V201.864H92.506V198.864ZM92.506 225.232V222.232H89.506V225.232H92.506ZM105.818 225.232H108.818V222.232H105.818V225.232ZM84.57 256.28C78.9398 256.28 74.423 254.36 71.3199 251.243C68.2147 248.125 66.322 243.605 66.322 238.032H60.322C60.322 245.003 62.7173 251.107 67.0681 255.477C71.421 259.848 77.5283 262.28 84.57 262.28V256.28ZM66.322 238.032V188.368H60.322V238.032H66.322ZM66.322 188.368C66.322 182.795 68.2147 178.275 71.3199 175.157C74.423 172.04 78.9398 170.12 84.57 170.12V164.12C77.5283 164.12 71.421 166.552 67.0681 170.923C62.7173 175.293 60.322 181.397 60.322 188.368H66.322ZM84.57 170.12C90.2003 170.12 94.717 172.04 97.8201 175.157C100.925 178.275 102.818 182.795 102.818 188.368H108.818C108.818 181.397 106.423 175.293 102.072 170.923C97.719 166.552 91.6117 164.12 84.57 164.12V170.12ZM102.818 188.368V198.864H108.818V188.368H102.818ZM105.818 195.864H92.506V201.864H105.818V195.864ZM95.506 198.864V188.368H89.506V198.864H95.506ZM95.506 188.368C95.506 185.132 94.5102 182.231 92.5104 180.115C90.4985 177.987 87.7207 176.92 84.698 176.92V182.92C86.2833 182.92 87.4095 183.453 88.1496 184.237C88.9018 185.032 89.506 186.356 89.506 188.368H95.506ZM84.698 176.92C81.6753 176.92 78.8975 177.987 76.8856 180.115C74.8858 182.231 73.89 185.132 73.89 188.368H79.89C79.89 186.356 80.4942 185.032 81.2464 184.237C81.9865 183.453 83.1127 182.92 84.698 182.92V176.92ZM73.89 188.368V238.032H79.89V188.368H73.89ZM73.89 238.032C73.89 241.268 74.8858 244.168 76.8856 246.285C78.8975 248.413 81.6753 249.48 84.698 249.48V243.48C83.1127 243.48 81.9865 242.947 81.2464 242.163C80.4942 241.368 79.89 240.044 79.89 238.032H73.89ZM84.698 249.48C87.7207 249.48 90.4985 248.413 92.5104 246.285C94.5102 244.168 95.506 241.268 95.506 238.032H89.506C89.506 240.044 88.9018 241.368 88.1496 242.163C87.4095 242.947 86.2833 243.48 84.698 243.48V249.48ZM95.506 238.032V225.232H89.506V238.032H95.506ZM92.506 228.232H105.818V222.232H92.506V228.232ZM102.818 225.232V238.032H108.818V225.232H102.818ZM102.818 238.032C102.818 243.605 100.925 248.125 97.8201 251.243C94.717 254.36 90.2003 256.28 84.57 256.28V262.28C91.6117 262.28 97.719 259.848 102.072 255.477C106.423 251.107 108.818 245.003 108.818 238.032H102.818ZM160.72 258L157.753 258.44L158.132 261H160.72V258ZM157.776 238.16L160.744 237.72L160.364 235.16H157.776V238.16ZM143.184 238.16V235.16H140.596L140.217 237.72L143.184 238.16ZM140.24 258V261H142.828L143.208 258.44L140.24 258ZM126.672 258L123.712 257.51L123.134 261H126.672V258ZM141.52 168.4V165.4H138.976L138.56 167.91L141.52 168.4ZM159.696 168.4L162.656 167.91L162.24 165.4H159.696V168.4ZM174.544 258V261H178.082L177.504 257.51L174.544 258ZM144.976 225.104L142.008 224.668L141.504 228.104H144.976V225.104ZM155.984 225.104V228.104H159.456L158.952 224.668L155.984 225.104ZM150.48 187.6L153.448 187.164H147.512L150.48 187.6ZM163.688 257.56L160.744 237.72L154.809 238.6L157.753 258.44L163.688 257.56ZM157.776 235.16H143.184V241.16H157.776V235.16ZM140.217 237.72L137.273 257.56L143.208 258.44L146.152 238.6L140.217 237.72ZM140.24 255H126.672V261H140.24V255ZM129.632 258.49L144.48 168.89L138.56 167.91L123.712 257.51L129.632 258.49ZM141.52 171.4H159.696V165.4H141.52V171.4ZM156.736 168.89L171.584 258.49L177.504 257.51L162.656 167.91L156.736 168.89ZM174.544 255H160.72V261H174.544V255ZM144.976 228.104H155.984V222.104H144.976V228.104ZM158.952 224.668L153.448 187.164L147.512 188.036L153.016 225.54L158.952 224.668ZM147.512 187.164L142.008 224.668L147.944 225.54L153.448 188.036L147.512 187.164ZM197.824 258H194.824V261H197.824V258ZM197.824 168.4V165.4H194.824V168.4H197.824ZM212.8 168.4L215.683 167.572L215.06 165.4H212.8V168.4ZM230.08 228.56L227.197 229.388L233.08 228.56H230.08ZM230.08 168.4V165.4H227.08V168.4H230.08ZM243.392 168.4H246.392V165.4H243.392V168.4ZM243.392 258V261H246.392V258H243.392ZM229.056 258L226.193 258.895L226.85 261H229.056V258ZM211.136 200.656L213.999 199.761L208.136 200.656H211.136ZM211.136 258V261H214.136V258H211.136ZM200.824 258V168.4H194.824V258H200.824ZM197.824 171.4H212.8V165.4H197.824V171.4ZM209.917 169.228L227.197 229.388L232.963 227.732L215.683 167.572L209.917 169.228ZM233.08 228.56V168.4H227.08V228.56H233.08ZM230.08 171.4H243.392V165.4H230.08V171.4ZM240.392 168.4V258H246.392V168.4H240.392ZM243.392 255H229.056V261H243.392V255ZM231.919 257.105L213.999 199.761L208.273 201.551L226.193 258.895L231.919 257.105ZM208.136 200.656V258H214.136V200.656H208.136ZM211.136 255H197.824V261H211.136V255ZM270.999 258H267.999V261H270.999V258ZM270.999 168.4V165.4H267.999V168.4H270.999ZM285.975 168.4L288.858 167.572L288.235 165.4H285.975V168.4ZM303.255 228.56L300.372 229.388L306.255 228.56H303.255ZM303.255 168.4V165.4H300.255V168.4H303.255ZM316.567 168.4H319.567V165.4H316.567V168.4ZM316.567 258V261H319.567V258H316.567ZM302.231 258L299.368 258.895L300.025 261H302.231V258ZM284.311 200.656L287.174 199.761L281.311 200.656H284.311ZM284.311 258V261H287.311V258H284.311ZM273.999 258V168.4H267.999V258H273.999ZM270.999 171.4H285.975V165.4H270.999V171.4ZM283.092 169.228L300.372 229.388L306.138 227.732L288.858 167.572L283.092 169.228ZM306.255 228.56V168.4H300.255V228.56H306.255ZM303.255 171.4H316.567V165.4H303.255V171.4ZM313.567 168.4V258H319.567V168.4H313.567ZM316.567 255H302.231V261H316.567V255ZM305.094 257.105L287.174 199.761L281.448 201.551L299.368 258.895L305.094 257.105ZM281.311 200.656V258H287.311V200.656H281.311ZM284.311 255H270.999V261H284.311V255ZM344.174 258H341.174V261H344.174V258ZM344.174 168.4V165.4H341.174V168.4H344.174ZM382.702 168.4H385.702V165.4H382.702V168.4ZM382.702 181.2V184.2H385.702V181.2H382.702ZM357.742 181.2V178.2H354.742V181.2H357.742ZM357.742 206.16H354.742V209.16H357.742V206.16ZM377.582 206.16H380.582V203.16H377.582V206.16ZM377.582 218.96V221.96H380.582V218.96H377.582ZM357.742 218.96V215.96H354.742V218.96H357.742ZM357.742 245.2H354.742V248.2H357.742V245.2ZM382.702 245.2H385.702V242.2H382.702V245.2ZM382.702 258V261H385.702V258H382.702ZM347.174 258V168.4H341.174V258H347.174ZM344.174 171.4H382.702V165.4H344.174V171.4ZM379.702 168.4V181.2H385.702V168.4H379.702ZM382.702 178.2H357.742V184.2H382.702V178.2ZM354.742 181.2V206.16H360.742V181.2H354.742ZM357.742 209.16H377.582V203.16H357.742V209.16ZM374.582 206.16V218.96H380.582V206.16H374.582ZM377.582 215.96H357.742V221.96H377.582V215.96ZM354.742 218.96V245.2H360.742V218.96H354.742ZM357.742 248.2H382.702V242.2H357.742V248.2ZM379.702 245.2V258H385.702V245.2H379.702ZM382.702 255H344.174V261H382.702V255ZM451.393 258V261H455.365L454.279 257.179L451.393 258ZM437.313 258L434.414 258.772L435.008 261H437.313V258ZM427.457 221.008L430.356 220.236L429.762 218.008H427.457V221.008ZM420.417 221.008V218.008H417.417V221.008H420.417ZM420.417 258V261H423.417V258H420.417ZM406.849 258H403.849V261H406.849V258ZM406.849 168.4V165.4H403.849V168.4H406.849ZM440.001 217.936L438.441 215.373L436.491 216.56L437.115 218.757L440.001 217.936ZM420.417 181.2V178.2H417.417V181.2H420.417ZM420.417 208.208H417.417V211.208H420.417V208.208ZM451.393 255H437.313V261H451.393V255ZM440.212 257.228L430.356 220.236L424.558 221.78L434.414 258.772L440.212 257.228ZM427.457 218.008H420.417V224.008H427.457V218.008ZM417.417 221.008V258H423.417V221.008H417.417ZM420.417 255H406.849V261H420.417V255ZM409.849 258V168.4H403.849V258H409.849ZM406.849 171.4H428.097V165.4H406.849V171.4ZM428.097 171.4C433.893 171.4 438.393 173.28 441.439 176.352C444.488 179.428 446.345 183.966 446.345 189.776H452.345C452.345 182.658 450.042 176.508 445.699 172.128C441.353 167.744 435.229 165.4 428.097 165.4V171.4ZM446.345 189.776V199.632H452.345V189.776H446.345ZM446.345 199.632C446.345 207.065 443.306 212.412 438.441 215.373L441.561 220.499C448.472 216.292 452.345 208.839 452.345 199.632H446.345ZM437.115 218.757L448.507 258.821L454.279 257.179L442.887 217.115L437.115 218.757ZM417.417 181.2V208.208H423.417V181.2H417.417ZM420.417 211.208H427.457V205.208H420.417V211.208ZM427.457 211.208C430.664 211.208 433.585 210.258 435.706 208.137C437.827 206.016 438.777 203.095 438.777 199.888H432.777C432.777 201.929 432.19 203.168 431.464 203.895C430.737 204.621 429.498 205.208 427.457 205.208V211.208ZM438.777 199.888V189.52H432.777V199.888H438.777ZM438.777 189.52C438.777 186.313 437.827 183.392 435.706 181.271C433.585 179.15 430.664 178.2 427.457 178.2V184.2C429.498 184.2 430.737 184.786 431.464 185.513C432.19 186.24 432.777 187.479 432.777 189.52H438.777ZM427.457 178.2H420.417V184.2H427.457V178.2Z" fill="white" mask="url(#path-3-outside-2_576_25)"/>
</svg>
