<svg width="383" height="383" viewBox="0 0 383 383" fill="none" xmlns="http://www.w3.org/2000/svg">
<path d="M192.256 104.443L57.2021 323.905" stroke="#0070C0" stroke-width="9"/>
<path d="M192.255 104.443L85.8271 322.437" stroke="#0070C0" stroke-width="9"/>
<path d="M192.255 104.443L113.719 322.437" stroke="#0070C0" stroke-width="9"/>
<path d="M190.054 105.911L325.107 326.107" stroke="#0070C0" stroke-width="9"/>
<path d="M190.054 105.911L297.216 324.639" stroke="#0070C0" stroke-width="9"/>
<path d="M190.054 105.911L269.324 324.639" stroke="#0070C0" stroke-width="9"/>
<path d="M192.256 104.443L163.63 323.171" stroke="#0070C0" stroke-width="9"/>
<path d="M192.256 104.443L190.788 321.703" stroke="#0070C0" stroke-width="9"/>
<path d="M192.255 104.443L218.679 321.703" stroke="#0070C0" stroke-width="9"/>
<path d="M242.166 56H141.61L127.665 70.6797V144.812L141.61 156.556H242.166L256.112 142.61V70.6797L242.166 56Z" stroke="#0070C0" stroke-width="9"/>
<mask id="path-11-inside-1_609_233" fill="white">
<rect x="140.143" y="70.6797" width="102.758" height="71.9307" rx="8"/>
</mask>
<rect x="140.143" y="70.6797" width="102.758" height="71.9307" rx="8" stroke="#0070C0" stroke-width="18" mask="url(#path-11-inside-1_609_233)"/>
<circle cx="162.896" cy="93.4333" r="5.13791" fill="#0070C0"/>
<circle cx="162.896" cy="121.325" r="5.13791" fill="#0070C0"/>
<circle cx="218.679" cy="121.325" r="5.13791" fill="#0070C0"/>
<circle cx="218.679" cy="93.4333" r="5.13791" fill="#0070C0"/>
<path d="M259.782 80.2214H278.27C281.031 80.2214 283.27 82.46 283.27 85.2214V130.27C283.27 133.032 281.031 135.27 278.27 135.27H259.782" stroke="#0070C0" stroke-width="9"/>
<circle cx="94.635" cy="107.379" r="8.80784" fill="#0070C0"/>
<circle cx="63.8078" cy="107.379" r="8.80784" fill="#0070C0"/>
<circle cx="319.235" cy="107.379" r="8.80784" fill="#0070C0"/>
<circle cx="288.407" cy="107.379" r="8.80784" fill="#0070C0"/>
<path d="M123.995 136.005H105.507C102.746 136.005 100.507 133.766 100.507 131.005V85.9557C100.507 83.1942 102.746 80.9557 105.507 80.9557H123.995" stroke="#0070C0" stroke-width="9"/>
<path d="M71.8818 108.113H86.5616M311.895 107.379H295.748" stroke="#0070C0" stroke-width="9"/>
<path d="M320.703 104.443V66.1377C320.703 63.3763 318.464 61.1377 315.703 61.1377H245.836" stroke="#0070C0" stroke-width="9"/>
<path d="M63.8082 105.911V66.8718C63.8082 64.1104 66.0468 61.8718 68.8082 61.8718H138.675" stroke="#0070C0" stroke-width="9"/>
<circle cx="191.521" cy="105.911" r="11.6477" stroke="#0070C0" stroke-width="9"/>
</svg>
