<svg width="77" height="77" viewBox="0 0 77 77" fill="none" xmlns="http://www.w3.org/2000/svg">
<rect width="77" height="77" rx="13" fill="#4CCD25"/>
<path d="M32.2408 23.7835C31.8072 24.2172 31.5637 24.8053 31.5637 25.4185C31.5637 26.0316 31.8072 26.6197 32.2408 27.0534L43.6877 38.5003L32.2408 49.9471C31.8195 50.3833 31.5864 50.9674 31.5917 51.5738C31.597 52.1801 31.8402 52.7601 32.2689 53.1888C32.6977 53.6176 33.2777 53.8608 33.884 53.8661C34.4904 53.8713 35.0745 53.6383 35.5106 53.217L48.5925 40.1352C49.026 39.7015 49.2695 39.1135 49.2695 38.5003C49.2695 37.8871 49.026 37.299 48.5925 36.8653L35.5106 23.7835C35.077 23.35 34.4889 23.1064 33.8757 23.1064C33.2625 23.1064 32.6744 23.35 32.2408 23.7835Z" fill="white"/>
</svg>
