<svg width="239" height="48" viewBox="0 0 239 48" fill="none" xmlns="http://www.w3.org/2000/svg">
<path fill-rule="evenodd" clip-rule="evenodd" d="M0 36.6688V0H49.1601L64.7379 15.5553C63.8209 16.1951 63.221 17.2579 63.221 18.4608C63.221 19.5988 63.7579 20.6114 64.5922 21.2591L49.1601 36.6688H0ZM65.5206 16.3368L67.5211 18.3344L65.3659 20.4864C64.7231 20.0427 64.3019 19.301 64.3019 18.4608C64.3019 17.555 64.7915 16.7636 65.5206 16.3368Z" fill="#05BC58"/>
<path d="M18.6802 23.8044C18.6802 26.055 17.8825 27.8372 16.287 29.1509C14.6916 30.4539 12.5303 31.1054 9.80297 31.1054C7.42063 31.1054 5.50182 30.6208 4.04654 29.6516V25.2258C6.12705 26.3888 8.05664 26.9703 9.83531 26.9703C11.0427 26.9703 11.9859 26.7442 12.665 26.2919C13.3441 25.8289 13.6837 25.1989 13.6837 24.4021C13.6837 23.939 13.6083 23.5352 13.4573 23.1906C13.3172 22.8353 13.1124 22.5068 12.8429 22.2053C12.5734 21.9038 11.905 21.3546 10.8378 20.5578C9.35022 19.4917 8.30457 18.4364 7.7009 17.3919C7.09723 16.3473 6.7954 15.2221 6.7954 14.016C6.7954 12.6269 7.12957 11.3885 7.79792 10.3009C8.46627 9.20255 9.4149 8.35185 10.6438 7.74882C11.8835 7.13502 13.3064 6.82812 14.9126 6.82812C17.2518 6.82812 19.3916 7.36116 21.332 8.42722L19.5695 12.1908C17.8878 11.3939 16.3356 10.9955 14.9126 10.9955C14.0179 10.9955 13.2849 11.2378 12.7135 11.7223C12.1422 12.2069 11.8565 12.8476 11.8565 13.6445C11.8565 14.3014 12.0344 14.8775 12.3901 15.3728C12.7459 15.8574 13.5436 16.5035 14.7833 17.3111C16.0876 18.1726 17.0632 19.1256 17.71 20.1701C18.3568 21.2039 18.6802 22.4153 18.6802 23.8044Z" fill="#FF0000"/>
<path d="M22.1321 30.7823L27.177 7.16733H32.1088L27.0639 30.7823H22.1321Z" fill="white"/>
<path d="M45.8932 25.1612H38.2449L35.4637 30.7823H30.2894L42.6754 7.07041H48.7067L51.0837 30.7823H46.2813L45.8932 25.1612ZM45.6507 20.9616L45.2302 15.3082C45.1224 13.8975 45.0685 12.5353 45.0685 11.2216V10.6401C44.5942 11.9323 44.0067 13.2999 43.306 14.7429L40.2661 20.9616H45.6507Z" fill="#0070C0"/>
<path d="M78.0138 16.6272C78.0138 17.5197 77.7242 18.2037 77.145 18.6792C76.5658 19.1546 75.7414 19.3924 74.6718 19.3924H73.7915V22.5902H72.4072V14.0432H74.8456C75.9036 14.0432 76.6951 14.2614 77.2203 14.6979C77.7493 15.1344 78.0138 15.7775 78.0138 16.6272ZM73.7915 18.2173H74.527C75.2375 18.2173 75.7588 18.0926 76.0909 17.8432C76.4229 17.5937 76.589 17.204 76.589 16.6739C76.589 16.1828 76.4403 15.8165 76.143 15.5748C75.8457 15.3332 75.3823 15.2124 74.7529 15.2124H73.7915V18.2173Z" fill="black"/>
<path d="M82.7485 22.5902H81.3642V15.2416H78.8737V14.0432H85.239V15.2416H82.7485V22.5902Z" fill="black"/>
<path d="M86.3133 21.8595C86.3133 21.5749 86.3866 21.3567 86.5334 21.2047C86.6801 21.0527 86.8925 20.9767 87.1705 20.9767C87.4523 20.9767 87.6666 21.0566 87.8134 21.2164C87.9601 21.3723 88.0335 21.5866 88.0335 21.8595C88.0335 22.1362 87.9582 22.3564 87.8076 22.5201C87.6608 22.6799 87.4485 22.7598 87.1705 22.7598C86.8925 22.7598 86.6801 22.6799 86.5334 22.5201C86.3866 22.3603 86.3133 22.1401 86.3133 21.8595Z" fill="black"/>
<path d="M98.1284 20.2693C98.1284 21.0293 97.8562 21.6256 97.3118 22.0582C96.7674 22.4908 96.0163 22.7072 95.0588 22.7072C94.1012 22.7072 93.3173 22.5571 92.7073 22.257V20.9358C93.0934 21.1189 93.5027 21.2632 93.9351 21.3684C94.3715 21.4736 94.7769 21.5262 95.1514 21.5262C95.6997 21.5262 96.1032 21.421 96.3619 21.2105C96.6245 21.0001 96.7558 20.7175 96.7558 20.3628C96.7558 20.0433 96.6361 19.7724 96.3967 19.5502C96.1573 19.3281 95.663 19.065 94.914 18.761C94.1417 18.4453 93.5973 18.0848 93.2807 17.6795C92.964 17.2741 92.8057 16.7869 92.8057 16.2179C92.8057 15.5047 93.0567 14.9435 93.5587 14.5342C94.0606 14.125 94.7344 13.9204 95.58 13.9204C96.3909 13.9204 97.1979 14.0997 98.001 14.4582L97.5608 15.5982C96.8079 15.2786 96.136 15.1188 95.5453 15.1188C95.0974 15.1188 94.7576 15.2182 94.5259 15.417C94.2942 15.6119 94.1784 15.8711 94.1784 16.1945C94.1784 16.4167 94.2247 16.6077 94.3174 16.7675C94.4101 16.9234 94.5626 17.0715 94.775 17.2118C94.9873 17.3521 95.3696 17.5372 95.9217 17.7672C96.5434 18.0283 96.999 18.2719 97.2886 18.4979C97.5782 18.724 97.7906 18.9793 97.9257 19.2638C98.0609 19.5483 98.1284 19.8835 98.1284 20.2693Z" fill="black"/>
<path d="M99.8862 22.5902V14.0432H101.27V22.5902H99.8862Z" fill="black"/>
<path d="M108.513 20.2693C108.513 21.0293 108.241 21.6256 107.696 22.0582C107.152 22.4908 106.401 22.7072 105.443 22.7072C104.486 22.7072 103.702 22.5571 103.092 22.257V20.9358C103.478 21.1189 103.887 21.2632 104.32 21.3684C104.756 21.4736 105.161 21.5262 105.536 21.5262C106.084 21.5262 106.488 21.421 106.747 21.2105C107.009 21.0001 107.14 20.7175 107.14 20.3628C107.14 20.0433 107.021 19.7724 106.781 19.5502C106.542 19.3281 106.048 19.065 105.299 18.761C104.526 18.4453 103.982 18.0848 103.665 17.6795C103.349 17.2741 103.19 16.7869 103.19 16.2179C103.19 15.5047 103.441 14.9435 103.943 14.5342C104.445 14.125 105.119 13.9204 105.965 13.9204C106.775 13.9204 107.582 14.0997 108.386 14.4582L107.945 15.5982C107.192 15.2786 106.521 15.1188 105.93 15.1188C105.482 15.1188 105.142 15.2182 104.91 15.417C104.679 15.6119 104.563 15.8711 104.563 16.1945C104.563 16.4167 104.609 16.6077 104.702 16.7675C104.795 16.9234 104.947 17.0715 105.16 17.2118C105.372 17.3521 105.754 17.5372 106.306 17.7672C106.928 18.0283 107.384 18.2719 107.673 18.4979C107.963 18.724 108.175 18.9793 108.31 19.2638C108.445 19.5483 108.513 19.8835 108.513 20.2693Z" fill="black"/>
<path d="M113.196 22.5902H111.811V15.2416H109.321V14.0432H115.686V15.2416H113.196V22.5902Z" fill="black"/>
<path d="M121.898 22.5902H117.108V14.0432H121.898V15.2241H118.492V17.5508H121.684V18.7201H118.492V21.4035H121.898V22.5902Z" fill="black"/>
<path d="M127.513 22.5902L125.057 15.4521H125.011C125.076 16.5122 125.109 17.506 125.109 18.4336V22.5902H123.852V14.0432H125.804L128.156 20.8422H128.191L130.612 14.0432H132.569V22.5902H131.237V18.3635C131.237 17.9386 131.247 17.3852 131.266 16.7032C131.289 16.0211 131.309 15.608 131.324 15.4638H131.278L128.735 22.5902H127.513Z" fill="black"/>
<path d="M138.118 22.5902V14.0432H139.502V22.5902H138.118Z" fill="black"/>
<path d="M148.916 22.5902H147.219L143.055 15.7795H143.009L143.038 16.1595C143.092 16.8844 143.119 17.5469 143.119 18.1472V22.5902H141.862V14.0432H143.542L147.694 20.8188H147.729C147.721 20.7292 147.706 20.4038 147.683 19.8425C147.66 19.2774 147.648 18.837 147.648 18.5213V14.0432H148.916V22.5902Z" fill="black"/>
<path d="M158.789 18.305C158.789 19.6964 158.443 20.7779 157.752 21.5496C157.064 22.3213 156.09 22.7072 154.827 22.7072C153.549 22.7072 152.566 22.3252 151.879 21.5613C151.195 20.7935 150.854 19.7042 150.854 18.2933C150.854 16.8824 151.197 15.7989 151.885 15.0428C152.576 14.2867 153.56 13.9087 154.838 13.9087C156.097 13.9087 157.07 14.2926 157.758 15.0604C158.445 15.8282 158.789 16.9097 158.789 18.305ZM152.325 18.305C152.325 19.3573 152.535 20.1563 152.956 20.7019C153.377 21.2437 154.001 21.5145 154.827 21.5145C155.649 21.5145 156.269 21.2456 156.686 20.7078C157.107 20.1699 157.317 19.369 157.317 18.305C157.317 17.2566 157.109 16.4615 156.692 15.9198C156.279 15.378 155.661 15.1072 154.838 15.1072C154.008 15.1072 153.381 15.378 152.956 15.9198C152.535 16.4615 152.325 17.2566 152.325 18.305Z" fill="black"/>
<path d="M165.55 14.0432H166.987L164.021 22.5902H162.562L159.608 14.0432H161.033L162.799 19.3573C162.892 19.6106 162.99 19.938 163.095 20.3395C163.199 20.737 163.266 21.0332 163.297 21.2281C163.348 20.9319 163.425 20.5889 163.529 20.1992C163.633 19.8094 163.718 19.521 163.784 19.3339L165.55 14.0432Z" fill="black"/>
<path d="M173.476 22.5902L172.631 20.2167H169.393L168.565 22.5902H167.105L170.274 14.0081H171.779L174.948 22.5902H173.476ZM172.266 19.0124L171.472 16.6856C171.415 16.5297 171.333 16.2842 171.229 15.949C171.129 15.6138 171.059 15.3683 171.021 15.2124C170.916 15.6918 170.764 16.216 170.563 16.785L169.799 19.0124H172.266Z" fill="black"/>
<path d="M181.067 20.2693C181.067 21.0293 180.794 21.6256 180.25 22.0582C179.706 22.4908 178.954 22.7072 177.997 22.7072C177.039 22.7072 176.255 22.5571 175.645 22.257V20.9358C176.032 21.1189 176.441 21.2632 176.873 21.3684C177.31 21.4736 177.715 21.5262 178.09 21.5262C178.638 21.5262 179.041 21.421 179.3 21.2105C179.563 21.0001 179.694 20.7175 179.694 20.3628C179.694 20.0433 179.574 19.7724 179.335 19.5502C179.095 19.3281 178.601 19.065 177.852 18.761C177.08 18.4453 176.535 18.0848 176.219 17.6795C175.902 17.2741 175.744 16.7869 175.744 16.2179C175.744 15.5047 175.995 14.9435 176.497 14.5342C176.999 14.125 177.673 13.9204 178.518 13.9204C179.329 13.9204 180.136 14.0997 180.939 14.4582L180.499 15.5982C179.746 15.2786 179.074 15.1188 178.483 15.1188C178.036 15.1188 177.696 15.2182 177.464 15.417C177.232 15.6119 177.117 15.8711 177.117 16.1945C177.117 16.4167 177.163 16.6077 177.256 16.7675C177.348 16.9234 177.501 17.0715 177.713 17.2118C177.925 17.3521 178.308 17.5372 178.86 17.7672C179.482 18.0283 179.937 18.2719 180.227 18.4979C180.516 18.724 180.729 18.9793 180.864 19.2638C180.999 19.5483 181.067 19.8835 181.067 20.2693Z" fill="black"/>
<path d="M182.824 22.5902V14.0432H184.209V22.5902H182.824Z" fill="black"/>
<path d="M195.022 22.5902L194.176 20.2167H190.938L190.11 22.5902H188.651L191.819 14.0081H193.325L196.493 22.5902H195.022ZM193.811 19.0124L193.018 16.6856C192.96 16.5297 192.879 16.2842 192.775 15.949C192.674 15.6138 192.605 15.3683 192.566 15.2124C192.462 15.6918 192.309 16.216 192.108 16.785L191.344 19.0124H193.811Z" fill="black"/>
<path d="M204.193 22.5902H202.589L199.93 18.7201L199.114 19.3924V22.5902H197.729V14.0432H199.114V18.1238C199.492 17.6561 199.868 17.2059 200.243 16.7733L202.531 14.0432H204.106C202.627 15.797 201.567 17.0461 200.926 17.7905L204.193 22.5902Z" fill="black"/>
<path d="M212.073 14.0432V19.5736C212.073 20.205 211.938 20.7584 211.667 21.2339C211.401 21.7055 211.013 22.0699 210.503 22.3272C209.997 22.5805 209.391 22.7072 208.685 22.7072C207.634 22.7072 206.818 22.4265 206.235 21.8653C205.652 21.3041 205.36 20.5324 205.36 19.5502V14.0432H206.75V19.4508C206.75 20.1563 206.912 20.6766 207.237 21.0118C207.561 21.3469 208.059 21.5145 208.731 21.5145C210.036 21.5145 210.689 20.8227 210.689 19.4392V14.0432H212.073Z" fill="black"/>
<path d="M215.742 18.0185H216.703C217.348 18.0185 217.815 17.8977 218.105 17.6561C218.394 17.4144 218.539 17.0559 218.539 16.5804C218.539 16.0971 218.383 15.7502 218.07 15.5398C217.757 15.3293 217.286 15.2241 216.657 15.2241H215.742V18.0185ZM215.742 19.1761V22.5902H214.358V14.0432H216.75C217.842 14.0432 218.651 14.2497 219.176 14.6628C219.702 15.076 219.964 15.6996 219.964 16.5336C219.964 17.5976 219.416 18.3557 218.319 18.8078L220.711 22.5902H219.136L217.109 19.1761H215.742Z" fill="black"/>
<path d="M227.317 22.5902L226.471 20.2167H223.233L222.405 22.5902H220.946L224.114 14.0081H225.62L228.788 22.5902H227.317ZM226.106 19.0124L225.313 16.6856C225.255 16.5297 225.174 16.2842 225.069 15.949C224.969 15.6138 224.9 15.3683 224.861 15.2124C224.757 15.6918 224.604 16.216 224.403 16.785L223.639 19.0124H226.106Z" fill="black"/>
<path d="M234.907 20.2693C234.907 21.0293 234.635 21.6256 234.09 22.0582C233.546 22.4908 232.795 22.7072 231.837 22.7072C230.88 22.7072 230.096 22.5571 229.486 22.257V20.9358C229.872 21.1189 230.281 21.2632 230.714 21.3684C231.15 21.4736 231.555 21.5262 231.93 21.5262C232.478 21.5262 232.882 21.421 233.14 21.2105C233.403 21.0001 233.534 20.7175 233.534 20.3628C233.534 20.0433 233.414 19.7724 233.175 19.5502C232.936 19.3281 232.441 19.065 231.692 18.761C230.92 18.4453 230.376 18.0848 230.059 17.6795C229.742 17.2741 229.584 16.7869 229.584 16.2179C229.584 15.5047 229.835 14.9435 230.337 14.5342C230.839 14.125 231.513 13.9204 232.358 13.9204C233.169 13.9204 233.976 14.0997 234.779 14.4582L234.339 15.5982C233.586 15.2786 232.914 15.1188 232.324 15.1188C231.876 15.1188 231.536 15.2182 231.304 15.417C231.073 15.6119 230.957 15.8711 230.957 16.1945C230.957 16.4167 231.003 16.6077 231.096 16.7675C231.188 16.9234 231.341 17.0715 231.553 17.2118C231.766 17.3521 232.148 17.5372 232.7 17.7672C233.322 18.0283 233.777 18.2719 234.067 18.4979C234.357 18.724 234.569 18.9793 234.704 19.2638C234.839 19.5483 234.907 19.8835 234.907 20.2693Z" fill="black"/>
<path d="M236.665 22.5902V14.0432H238.049V22.5902H236.665Z" fill="black"/>
<path d="M0.504822 46.9666V41.8055H1.33309V46.9666H0.504822Z" fill="black"/>
<path d="M6.0306 46.9666H5.21272V44.5661C5.21272 44.2648 5.15265 44.0401 5.03251 43.8918C4.91468 43.7435 4.72639 43.6694 4.46763 43.6694C4.12338 43.6694 3.87155 43.7729 3.71213 43.98C3.55272 44.1872 3.47301 44.5343 3.47301 45.0214V46.9666H2.6586V43.0622H3.29627L3.41063 43.5741H3.45222C3.56773 43.3882 3.73177 43.2446 3.94433 43.1434C4.15688 43.0422 4.39254 42.9916 4.6513 42.9916C5.57083 42.9916 6.0306 43.4682 6.0306 44.4213V46.9666Z" fill="black"/>
<path d="M10.6068 46.9666H9.78893V44.5661C9.78893 44.2648 9.72886 44.0401 9.60872 43.8918C9.49089 43.7435 9.3026 43.6694 9.04384 43.6694C8.69959 43.6694 8.44776 43.7729 8.28834 43.98C8.12893 44.1872 8.04922 44.5343 8.04922 45.0214V46.9666H7.23481V43.0622H7.87248L7.98684 43.5741H8.02843C8.14394 43.3882 8.30798 43.2446 8.52054 43.1434C8.73309 43.0422 8.96875 42.9916 9.22751 42.9916C10.147 42.9916 10.6068 43.4682 10.6068 44.4213V46.9666Z" fill="black"/>
<path d="M15.2107 45.0073C15.2107 45.6451 15.0502 46.1429 14.729 46.5006C14.4079 46.8583 13.9608 47.0372 13.3879 47.0372C13.0297 47.0372 12.7132 46.9548 12.4383 46.7901C12.1634 46.6253 11.952 46.3888 11.8041 46.0805C11.6562 45.7722 11.5823 45.4145 11.5823 45.0073C11.5823 44.3742 11.7417 43.88 12.0605 43.5247C12.3794 43.1693 12.8287 42.9916 13.4086 42.9916C13.9631 42.9916 14.4021 43.174 14.7256 43.5388C15.049 43.9012 15.2107 44.3907 15.2107 45.0073ZM12.421 45.0073C12.421 45.9087 12.7479 46.3594 13.4017 46.3594C14.0486 46.3594 14.3721 45.9087 14.3721 45.0073C14.3721 44.1154 14.0463 43.6694 13.3948 43.6694C13.0528 43.6694 12.8045 43.7847 12.6497 44.0153C12.4972 44.246 12.421 44.5766 12.421 45.0073Z" fill="black"/>
<path d="M17.0942 46.9666L15.6387 43.0622H16.4981L17.2779 45.3321C17.4119 45.7134 17.4927 46.0217 17.5205 46.257H17.5482C17.569 46.0876 17.6499 45.7793 17.7908 45.3321L18.5705 43.0622H19.4369L17.9745 46.9666H17.0942Z" fill="black"/>
<path d="M22.4883 46.9666L22.3254 46.4229H22.2977C22.1129 46.6606 21.9269 46.823 21.7397 46.9101C21.5526 46.9948 21.3123 47.0372 21.0189 47.0372C20.6423 47.0372 20.3477 46.9336 20.1352 46.7265C19.9249 46.5194 19.8198 46.2264 19.8198 45.8475C19.8198 45.4451 19.9665 45.1415 20.2599 44.9367C20.5533 44.732 21.0004 44.6202 21.6011 44.6014L22.263 44.5802V44.3719C22.263 44.1224 22.2053 43.9365 22.0897 43.8141C21.9765 43.6894 21.7998 43.627 21.5595 43.627C21.3631 43.627 21.1748 43.6564 20.9946 43.7153C20.8144 43.7741 20.6411 43.8435 20.4748 43.9236L20.2114 43.3305C20.4193 43.2199 20.6469 43.1363 20.8941 43.0799C21.1413 43.021 21.3747 42.9916 21.5942 42.9916C22.0817 42.9916 22.449 43.0999 22.6962 43.3164C22.9457 43.5329 23.0705 43.873 23.0705 44.3366V46.9666H22.4883ZM21.2753 46.4017C21.5711 46.4017 21.8079 46.3182 21.9858 46.1511C22.166 45.9816 22.2561 45.7451 22.2561 45.4415V45.1026L21.764 45.1238C21.3805 45.1379 21.1009 45.2038 20.9253 45.3215C20.752 45.4368 20.6654 45.6145 20.6654 45.8546C20.6654 46.0287 20.7162 46.164 20.8179 46.2605C20.9195 46.3547 21.072 46.4017 21.2753 46.4017Z" fill="black"/>
<path d="M25.706 46.3664C25.9047 46.3664 26.1034 46.3347 26.3021 46.2711V46.896C26.212 46.936 26.0953 46.9689 25.9521 46.9948C25.8111 47.023 25.6644 47.0372 25.5119 47.0372C24.7403 47.0372 24.3544 46.623 24.3544 45.7946V43.6906H23.8311V43.3234L24.3926 43.0198L24.6698 42.1938H25.1723V43.0622H26.264V43.6906H25.1723V45.7804C25.1723 45.9805 25.2208 46.1287 25.3179 46.2252C25.4172 46.3194 25.5466 46.3664 25.706 46.3664Z" fill="black"/>
<path d="M27.9568 46.9666H27.1424V43.0622H27.9568V46.9666ZM27.0939 42.0279C27.0939 41.8796 27.1332 41.7655 27.2117 41.6854C27.2926 41.6054 27.4069 41.5654 27.5548 41.5654C27.6981 41.5654 27.809 41.6054 27.8875 41.6854C27.9684 41.7655 28.0088 41.8796 28.0088 42.0279C28.0088 42.1691 27.9684 42.2809 27.8875 42.3632C27.809 42.4433 27.6981 42.4833 27.5548 42.4833C27.4069 42.4833 27.2926 42.4433 27.2117 42.3632C27.1332 42.2809 27.0939 42.1691 27.0939 42.0279Z" fill="black"/>
<path d="M30.069 46.9666L28.6135 43.0622H29.4729L30.2527 45.3321C30.3867 45.7134 30.4675 46.0217 30.4953 46.257H30.523C30.5438 46.0876 30.6247 45.7793 30.7656 45.3321L31.5453 43.0622H32.4117L30.9493 46.9666H30.069Z" fill="black"/>
<path d="M34.7388 47.0372C34.1427 47.0372 33.676 46.8607 33.3387 46.5076C33.0037 46.1523 32.8362 45.6639 32.8362 45.0426C32.8362 44.4048 32.9921 43.9036 33.304 43.5388C33.6159 43.174 34.0445 42.9916 34.5898 42.9916C35.0957 42.9916 35.4954 43.1481 35.7889 43.4611C36.0823 43.7741 36.229 44.2048 36.229 44.7532V45.2015H33.6749C33.6864 45.5804 33.7869 45.8722 33.9764 46.077C34.1658 46.2794 34.4327 46.3806 34.7769 46.3806C35.0033 46.3806 35.2136 46.3594 35.4076 46.317C35.604 46.2723 35.8143 46.1993 36.0384 46.0981V46.7724C35.8397 46.8689 35.6387 46.9371 35.4354 46.9772C35.2321 47.0172 34.9999 47.0372 34.7388 47.0372ZM34.5898 43.62C34.331 43.62 34.1231 43.7035 33.966 43.8706C33.8112 44.0377 33.7188 44.2813 33.6887 44.6014H35.4284C35.4238 44.2789 35.3476 44.0354 35.1997 43.8706C35.0518 43.7035 34.8485 43.62 34.5898 43.62Z" fill="black"/>
<path d="M42.148 45.5651C42.148 46.024 41.9851 46.3841 41.6594 46.6453C41.3336 46.9066 40.8843 47.0372 40.3113 47.0372C39.7383 47.0372 39.2693 46.9466 38.9043 46.7653V45.9675C39.1353 46.0781 39.3802 46.1652 39.639 46.2288C39.9 46.2923 40.1426 46.3241 40.3667 46.3241C40.6948 46.3241 40.9362 46.2605 41.091 46.1334C41.2481 46.0064 41.3267 45.8357 41.3267 45.6216C41.3267 45.4286 41.2551 45.265 41.1118 45.1309C40.9686 44.9967 40.6729 44.8379 40.2246 44.6543C39.7626 44.4637 39.4368 44.246 39.2474 44.0012C39.0579 43.7565 38.9632 43.4623 38.9632 43.1187C38.9632 42.688 39.1133 42.3491 39.4137 42.102C39.714 41.8549 40.1172 41.7313 40.6232 41.7313C41.1084 41.7313 41.5912 41.8396 42.0718 42.0561L41.8084 42.7445C41.3579 42.5515 40.9559 42.455 40.6024 42.455C40.3344 42.455 40.1311 42.515 39.9924 42.6351C39.8538 42.7527 39.7845 42.9092 39.7845 43.1046C39.7845 43.2387 39.8122 43.354 39.8677 43.4505C39.9231 43.5447 40.0144 43.6341 40.1415 43.7188C40.2685 43.8035 40.4973 43.9153 40.8276 44.0542C41.1996 44.2119 41.4722 44.359 41.6455 44.4955C41.8188 44.632 41.9459 44.7861 42.0267 44.9579C42.1076 45.1297 42.148 45.3321 42.148 45.5651Z" fill="black"/>
<path d="M46.5128 45.0073C46.5128 45.6451 46.3523 46.1429 46.0311 46.5006C45.71 46.8583 45.2629 47.0372 44.69 47.0372C44.3318 47.0372 44.0153 46.9548 43.7404 46.7901C43.4655 46.6253 43.2541 46.3888 43.1062 46.0805C42.9583 45.7722 42.8844 45.4145 42.8844 45.0073C42.8844 44.3742 43.0438 43.88 43.3626 43.5247C43.6815 43.1693 44.1308 42.9916 44.7107 42.9916C45.2652 42.9916 45.7042 43.174 46.0277 43.5388C46.3511 43.9012 46.5128 44.3907 46.5128 45.0073ZM43.7231 45.0073C43.7231 45.9087 44.05 46.3594 44.7038 46.3594C45.3507 46.3594 45.6742 45.9087 45.6742 45.0073C45.6742 44.1154 45.3484 43.6694 44.6969 43.6694C44.3549 43.6694 44.1066 43.7847 43.9518 44.0153C43.7993 44.246 43.7231 44.5766 43.7231 45.0073Z" fill="black"/>
<path d="M48.3374 46.9666H47.523V41.4736H48.3374V46.9666Z" fill="black"/>
<path d="M52.2794 46.9666L52.165 46.4547H52.1235C52.0102 46.6359 51.8485 46.7783 51.6383 46.8818C51.4303 46.9854 51.1924 47.0372 50.9244 47.0372C50.46 47.0372 50.1134 46.9195 49.8847 46.6842C49.656 46.4488 49.5416 46.0923 49.5416 45.6145V43.0622H50.3629V45.4698C50.3629 45.7687 50.423 45.9934 50.5432 46.144C50.6633 46.2923 50.8516 46.3664 51.108 46.3664C51.45 46.3664 51.7007 46.2629 51.8601 46.0558C52.0218 45.8463 52.1027 45.4968 52.1027 45.0073V43.0622H52.9205V46.9666H52.2794Z" fill="black"/>
<path d="M55.5803 46.3664C55.779 46.3664 55.9777 46.3347 56.1764 46.2711V46.896C56.0863 46.936 55.9696 46.9689 55.8263 46.9948C55.6854 47.023 55.5387 47.0372 55.3862 47.0372C54.6145 47.0372 54.2287 46.623 54.2287 45.7946V43.6906H53.7054V43.3234L54.2668 43.0198L54.5441 42.1938H55.0466V43.0622H56.1382V43.6906H55.0466V45.7804C55.0466 45.9805 55.0951 46.1287 55.1921 46.2252C55.2915 46.3194 55.4209 46.3664 55.5803 46.3664Z" fill="black"/>
<path d="M57.8311 46.9666H57.0167V43.0622H57.8311V46.9666ZM56.9682 42.0279C56.9682 41.8796 57.0074 41.7655 57.086 41.6854C57.1669 41.6054 57.2812 41.5654 57.4291 41.5654C57.5723 41.5654 57.6832 41.6054 57.7618 41.6854C57.8427 41.7655 57.8831 41.8796 57.8831 42.0279C57.8831 42.1691 57.8427 42.2809 57.7618 42.3632C57.6832 42.4433 57.5723 42.4833 57.4291 42.4833C57.2812 42.4833 57.1669 42.4433 57.086 42.3632C57.0074 42.2809 56.9682 42.1691 56.9682 42.0279Z" fill="black"/>
<path d="M62.4697 45.0073C62.4697 45.6451 62.3091 46.1429 61.988 46.5006C61.6668 46.8583 61.2198 47.0372 60.6468 47.0372C60.2887 47.0372 59.9722 46.9548 59.6972 46.7901C59.4223 46.6253 59.2109 46.3888 59.063 46.0805C58.9152 45.7722 58.8412 45.4145 58.8412 45.0073C58.8412 44.3742 59.0007 43.88 59.3195 43.5247C59.6383 43.1693 60.0877 42.9916 60.6676 42.9916C61.2221 42.9916 61.6611 43.174 61.9845 43.5388C62.308 43.9012 62.4697 44.3907 62.4697 45.0073ZM59.6799 45.0073C59.6799 45.9087 60.0068 46.3594 60.6607 46.3594C61.3076 46.3594 61.631 45.9087 61.631 45.0073C61.631 44.1154 61.3053 43.6694 60.6537 43.6694C60.3118 43.6694 60.0634 43.7847 59.9086 44.0153C59.7562 44.246 59.6799 44.5766 59.6799 45.0073Z" fill="black"/>
<path d="M66.8518 46.9666H66.034V44.5661C66.034 44.2648 65.9739 44.0401 65.8537 43.8918C65.7359 43.7435 65.5476 43.6694 65.2889 43.6694C64.9446 43.6694 64.6928 43.7729 64.5334 43.98C64.374 44.1872 64.2942 44.5343 64.2942 45.0214V46.9666H63.4798V43.0622H64.1175L64.2319 43.5741H64.2734C64.389 43.3882 64.553 43.2446 64.7656 43.1434C64.9781 43.0422 65.2138 42.9916 65.4725 42.9916C66.3921 42.9916 66.8518 43.4682 66.8518 44.4213V46.9666Z" fill="black"/>
<path d="M73.412 43.3658C73.412 43.9047 73.2387 44.3178 72.8922 44.6049C72.5456 44.892 72.0523 45.0356 71.4124 45.0356H70.8856V46.9666H70.0573V41.8055H71.5163C72.1494 41.8055 72.623 41.9373 72.9372 42.2008C73.2537 42.4644 73.412 42.8527 73.412 43.3658ZM70.8856 44.326H71.3257C71.7508 44.326 72.0627 44.2507 72.2614 44.1001C72.4601 43.9495 72.5595 43.7141 72.5595 43.394C72.5595 43.0975 72.4705 42.8763 72.2926 42.7304C72.1147 42.5845 71.8375 42.5115 71.4609 42.5115H70.8856V44.326Z" fill="black"/>
<path d="M76.3525 42.9916C76.5165 42.9916 76.6517 43.0034 76.7579 43.0269L76.6782 43.8C76.5627 43.7718 76.4426 43.7576 76.3178 43.7576C75.992 43.7576 75.7275 43.8659 75.5242 44.0824C75.3232 44.2989 75.2227 44.5802 75.2227 44.9261V46.9666H74.4083V43.0622H75.0459L75.1534 43.7506H75.195C75.322 43.5176 75.4872 43.3329 75.6905 43.1964C75.8962 43.0599 76.1168 42.9916 76.3525 42.9916Z" fill="black"/>
<path d="M80.9425 45.0073C80.9425 45.6451 80.782 46.1429 80.4608 46.5006C80.1397 46.8583 79.6926 47.0372 79.1196 47.0372C78.7615 47.0372 78.445 46.9548 78.1701 46.7901C77.8951 46.6253 77.6837 46.3888 77.5359 46.0805C77.388 45.7722 77.3141 45.4145 77.3141 45.0073C77.3141 44.3742 77.4735 43.88 77.7923 43.5247C78.1112 43.1693 78.5605 42.9916 79.1404 42.9916C79.6949 42.9916 80.1339 43.174 80.4574 43.5388C80.7808 43.9012 80.9425 44.3907 80.9425 45.0073ZM78.1528 45.0073C78.1528 45.9087 78.4797 46.3594 79.1335 46.3594C79.7804 46.3594 80.1039 45.9087 80.1039 45.0073C80.1039 44.1154 79.7781 43.6694 79.1266 43.6694C78.7846 43.6694 78.5363 43.7847 78.3815 44.0153C78.229 44.246 78.1528 44.5766 78.1528 45.0073Z" fill="black"/>
<path d="M82.826 46.9666L81.3705 43.0622H82.2299L83.0097 45.3321C83.1437 45.7134 83.2245 46.0217 83.2523 46.257H83.28C83.3008 46.0876 83.3816 45.7793 83.5226 45.3321L84.3023 43.0622H85.1687L83.7062 46.9666H82.826Z" fill="black"/>
<path d="M86.6363 46.9666H85.8219V43.0622H86.6363V46.9666ZM85.7734 42.0279C85.7734 41.8796 85.8127 41.7655 85.8912 41.6854C85.9721 41.6054 86.0865 41.5654 86.2343 41.5654C86.3776 41.5654 86.4885 41.6054 86.567 41.6854C86.6479 41.7655 86.6883 41.8796 86.6883 42.0279C86.6883 42.1691 86.6479 42.2809 86.567 42.3632C86.4885 42.4433 86.3776 42.4833 86.2343 42.4833C86.0865 42.4833 85.9721 42.4433 85.8912 42.3632C85.8127 42.2809 85.7734 42.1691 85.7734 42.0279Z" fill="black"/>
<path d="M89.1679 47.0372C88.6896 47.0372 88.3165 46.8607 88.0485 46.5076C87.7805 46.1546 87.6465 45.6592 87.6465 45.0214C87.6465 44.3813 87.7816 43.8836 88.0519 43.5282C88.3246 43.1705 88.7012 42.9916 89.1817 42.9916C89.6854 42.9916 90.0689 43.1811 90.3323 43.56H90.3739C90.3346 43.2799 90.315 43.0587 90.315 42.8963V41.4736H91.1328V46.9666H90.4952L90.3531 46.4547H90.315C90.0539 46.843 89.6715 47.0372 89.1679 47.0372ZM89.3862 46.3664C89.7212 46.3664 89.9649 46.2711 90.1174 46.0805C90.2699 45.8875 90.3485 45.5757 90.3531 45.145V45.0285C90.3531 44.5366 90.2745 44.1872 90.1174 43.98C89.9603 43.7729 89.7143 43.6694 89.3793 43.6694C89.0928 43.6694 88.8721 43.7882 88.7173 44.0259C88.5625 44.2613 88.4851 44.5978 88.4851 45.0356C88.4851 45.4686 88.5602 45.7993 88.7104 46.0275C88.8606 46.2535 89.0858 46.3664 89.3862 46.3664Z" fill="black"/>
<path d="M94.0421 47.0372C93.446 47.0372 92.9793 46.8607 92.642 46.5076C92.307 46.1523 92.1395 45.6639 92.1395 45.0426C92.1395 44.4048 92.2955 43.9036 92.6074 43.5388C92.9193 43.174 93.3478 42.9916 93.8931 42.9916C94.3991 42.9916 94.7987 43.1481 95.0922 43.4611C95.3856 43.7741 95.5323 44.2048 95.5323 44.7532V45.2015H92.9782C92.9897 45.5804 93.0902 45.8722 93.2797 46.077C93.4691 46.2794 93.736 46.3806 94.0802 46.3806C94.3066 46.3806 94.5169 46.3594 94.711 46.317C94.9073 46.2723 95.1176 46.1993 95.3417 46.0981V46.7724C95.143 46.8689 94.942 46.9371 94.7387 46.9772C94.5354 47.0172 94.3032 47.0372 94.0421 47.0372ZM93.8931 43.62C93.6343 43.62 93.4264 43.7035 93.2693 43.8706C93.1145 44.0377 93.0221 44.2813 92.992 44.6014H94.7317C94.7271 44.2789 94.6509 44.0354 94.503 43.8706C94.3552 43.7035 94.1518 43.62 93.8931 43.62Z" fill="black"/>
<path d="M98.4728 42.9916C98.6368 42.9916 98.7719 43.0034 98.8782 43.0269L98.7985 43.8C98.683 43.7718 98.5629 43.7576 98.4381 43.7576C98.1123 43.7576 97.8478 43.8659 97.6445 44.0824C97.4435 44.2989 97.343 44.5802 97.343 44.9261V46.9666H96.5286V43.0622H97.1662L97.2737 43.7506H97.3153C97.4423 43.5176 97.6075 43.3329 97.8108 43.1964C98.0165 43.0599 98.2371 42.9916 98.4728 42.9916Z" fill="black"/>
</svg>
