<svg width="105" height="105" viewBox="0 0 105 105" fill="none" xmlns="http://www.w3.org/2000/svg">
<rect width="105" height="105" rx="10" fill="#4CCD25"/>
<g clip-path="url(#clip0_100_250)">
<path d="M33.222 29L31 31.222L34.9143 37.9912L37.4528 37.6189L52.9475 53.1154L51.6258 54.3846C50.9489 55.0615 50.9489 56.0871 51.6258 56.764L52.3129 57.4528C52.9898 58.1297 54.0255 58.1297 54.5332 57.4528L56.5437 59.4615C56.3745 60.4769 56.5437 61.6835 57.3898 62.5297L66.5385 71.6258C68.4 73.4874 71.4462 73.4874 73.3077 71.6258C75.5077 69.5951 75.4874 66.5591 73.6258 64.6975L64.5297 55.5472C63.6835 54.7011 62.4769 54.3626 61.4615 54.7011L59.2395 52.6923C59.7472 52.0154 59.7472 50.9797 59.2395 50.4703L58.6049 49.8374C58.4511 49.677 58.2664 49.5493 58.0619 49.4621C57.8575 49.3749 57.6375 49.3299 57.4152 49.3299C57.193 49.3299 56.973 49.3749 56.7685 49.4621C56.5641 49.5493 56.3794 49.677 56.2255 49.8374L55.1154 50.9475L39.6206 35.4528L39.9895 32.9143L33.222 29ZM66.222 29.0525C62.8831 28.7749 58.456 30.9885 56.3846 32.9126C53.836 35.4612 54.2523 38.7934 56.278 42.0105L52.6835 45.6066L55.222 48.4615C56.5758 47.2769 58.5728 47.2769 59.9266 48.4615L60.6154 49.1486L60.7745 49.3077L62.2552 47.8269C65.3149 49.6258 68.4998 49.8848 70.9283 47.4563C73.2975 45.2563 75.8665 39.8308 74.6818 36.6154L69.9231 41.5332C69.2462 42.2102 68.2206 42.2102 67.5437 41.5332L62.6242 36.6154C62.4637 36.4615 62.3361 36.2768 62.2489 36.0724C62.1617 35.8679 62.1167 35.648 62.1167 35.4257C62.1167 35.2034 62.1617 34.9834 62.2489 34.779C62.3361 34.5745 62.4637 34.3898 62.6242 34.236L67.5454 29.3182C67.1223 29.1692 66.6992 29.0931 66.222 29.0525ZM47.6066 50.1538L41.4703 56.2885C40.8108 56.1425 40.137 56.0716 39.4615 56.0769C34.7231 56.0769 31 59.8 31 64.5385C31 69.2769 34.7231 73 39.4615 73C44.2 73 47.9231 69.2769 47.9231 64.5385C47.9231 63.6703 47.786 62.836 47.5525 62.0525L51.1486 58.4563L50.6206 57.7692C49.2668 56.4154 49.2769 54.3643 50.4615 53.0088L47.6066 50.1538ZM60.722 57.8758C60.9335 57.8758 61.1332 57.9165 61.3025 58.0874L71.2989 68.0821C71.6374 68.4206 71.6374 68.9588 71.2989 69.2972C70.9605 69.6357 70.4189 69.6357 70.0805 69.2972L60.0874 59.3025C59.7489 58.964 59.7489 58.4258 60.0874 58.0874C60.2566 57.9182 60.5105 57.8758 60.722 57.8758ZM40.6258 60.1469L43.8514 63.3742L42.6871 67.7623L38.2989 68.9266L35.0717 65.6994L36.236 61.3112L40.6258 60.1469Z" fill="#C6FFB5"/>
</g>
<defs>
<clipPath id="clip0_100_250">
<rect width="44" height="44" fill="white" transform="translate(31 29)"/>
</clipPath>
</defs>
</svg>
