<svg width="42" height="34" viewBox="0 0 42 34" fill="none" xmlns="http://www.w3.org/2000/svg">
<mask id="path-1-outside-1_279_12" maskUnits="userSpaceOnUse" x="0" y="0" width="42" height="34" fill="black">
<rect fill="white" width="42" height="34"/>
<path d="M16.888 3.39999L12.024 16.84H16.888V30.28H3.32V18.12L10.488 3.39999H16.888ZM37.368 3.39999L32.504 16.84H37.368V30.28H23.8V18.12L30.968 3.39999H37.368Z"/>
</mask>
<path d="M16.888 3.39999L19.7089 4.42091L21.1641 0.399994H16.888V3.39999ZM12.024 16.84L9.20305 15.8191L7.74787 19.84H12.024V16.84ZM16.888 16.84H19.888V13.84H16.888V16.84ZM16.888 30.28V33.28H19.888V30.28H16.888ZM3.32 30.28H0.320001V33.28H3.32V30.28ZM3.32 18.12L0.622794 16.8066L0.320001 17.4284V18.12H3.32ZM10.488 3.39999V0.399994H8.61208L7.79079 2.08657L10.488 3.39999ZM37.368 3.39999L40.1889 4.42091L41.6441 0.399994H37.368V3.39999ZM32.504 16.84L29.6831 15.8191L28.2279 19.84H32.504V16.84ZM37.368 16.84H40.368V13.84H37.368V16.84ZM37.368 30.28V33.28H40.368V30.28H37.368ZM23.8 30.28H20.8V33.28H23.8V30.28ZM23.8 18.12L21.1028 16.8066L20.8 17.4284V18.12H23.8ZM30.968 3.39999V0.399994H29.0921L28.2708 2.08657L30.968 3.39999ZM14.0671 2.37908L9.20305 15.8191L14.8449 17.8609L19.7089 4.42091L14.0671 2.37908ZM12.024 19.84H16.888V13.84H12.024V19.84ZM13.888 16.84V30.28H19.888V16.84H13.888ZM16.888 27.28H3.32V33.28H16.888V27.28ZM6.32 30.28V18.12H0.320001V30.28H6.32ZM6.01721 19.4334L13.1852 4.71342L7.79079 2.08657L0.622794 16.8066L6.01721 19.4334ZM10.488 6.39999H16.888V0.399994H10.488V6.39999ZM34.5471 2.37908L29.6831 15.8191L35.3249 17.8609L40.1889 4.42091L34.5471 2.37908ZM32.504 19.84H37.368V13.84H32.504V19.84ZM34.368 16.84V30.28H40.368V16.84H34.368ZM37.368 27.28H23.8V33.28H37.368V27.28ZM26.8 30.28V18.12H20.8V30.28H26.8ZM26.4972 19.4334L33.6652 4.71342L28.2708 2.08657L21.1028 16.8066L26.4972 19.4334ZM30.968 6.39999H37.368V0.399994H30.968V6.39999Z" fill="white" mask="url(#path-1-outside-1_279_12)"/>
</svg>
