<svg width="42" height="34" viewBox="0 0 42 34" fill="none" xmlns="http://www.w3.org/2000/svg">
<mask id="path-1-outside-1_279_13" maskUnits="userSpaceOnUse" x="0" y="0" width="42" height="34" fill="black">
<rect fill="white" width="42" height="34"/>
<path d="M25.112 30.6L29.976 17.16H25.112V3.72H38.68V15.88L31.512 30.6H25.112ZM4.632 30.6L9.496 17.16H4.632V3.72H18.2V15.88L11.032 30.6H4.632Z"/>
</mask>
<path d="M25.112 30.6L22.2911 29.5791L20.8359 33.6H25.112V30.6ZM29.976 17.16L32.7969 18.1809L34.2521 14.16H29.976V17.16ZM25.112 17.16H22.112V20.16H25.112V17.16ZM25.112 3.72V0.720001H22.112V3.72H25.112ZM38.68 3.72H41.68V0.720001H38.68V3.72ZM38.68 15.88L41.3772 17.1934L41.68 16.5716V15.88H38.68ZM31.512 30.6V33.6H33.3879L34.2092 31.9134L31.512 30.6ZM4.632 30.6L1.81105 29.5791L0.355862 33.6H4.632V30.6ZM9.496 17.16L12.3169 18.1809L13.7721 14.16H9.496V17.16ZM4.632 17.16H1.632V20.16H4.632V17.16ZM4.632 3.72V0.720001H1.632V3.72H4.632ZM18.2 3.72H21.2V0.720001H18.2V3.72ZM18.2 15.88L20.8972 17.1934L21.2 16.5716V15.88H18.2ZM11.032 30.6V33.6H12.9079L13.7292 31.9134L11.032 30.6ZM27.9329 31.6209L32.7969 18.1809L27.1551 16.1391L22.2911 29.5791L27.9329 31.6209ZM29.976 14.16H25.112V20.16H29.976V14.16ZM28.112 17.16V3.72H22.112V17.16H28.112ZM25.112 6.72H38.68V0.720001H25.112V6.72ZM35.68 3.72V15.88H41.68V3.72H35.68ZM35.9828 14.5666L28.8148 29.2866L34.2092 31.9134L41.3772 17.1934L35.9828 14.5666ZM31.512 27.6H25.112V33.6H31.512V27.6ZM7.45294 31.6209L12.3169 18.1809L6.67505 16.1391L1.81105 29.5791L7.45294 31.6209ZM9.496 14.16H4.632V20.16H9.496V14.16ZM7.632 17.16V3.72H1.632V17.16H7.632ZM4.632 6.72H18.2V0.720001H4.632V6.72ZM15.2 3.72V15.88H21.2V3.72H15.2ZM15.5028 14.5666L8.33479 29.2866L13.7292 31.9134L20.8972 17.1934L15.5028 14.5666ZM11.032 27.6H4.632V33.6H11.032V27.6Z" fill="white" mask="url(#path-1-outside-1_279_13)"/>
</svg>
