<svg width="229" height="229" viewBox="0 0 229 229" fill="none" xmlns="http://www.w3.org/2000/svg">
<path d="M185.376 139.51L167.459 170.542C163.948 176.705 157.426 179.93 150.833 179.5H136.499V193.833L118.583 161.583L136.499 129.333V143.667H156.709L140.799 116.075L171.831 98.1583L184.731 120.518C188.458 126.037 188.959 133.418 185.376 139.51ZM95.0042 50.9299H130.838C137.861 50.9299 143.953 55.0149 146.891 60.8916L154.058 73.3616L166.456 66.1949L147.536 97.7999L110.628 98.4449L123.026 91.2783L112.921 73.7199L97.0825 101.312L65.9792 83.3949L78.8792 61.0349C81.8175 55.0866 87.9092 50.9299 95.0042 50.9299ZM65.1908 170.613L47.2742 139.582C43.7625 133.49 44.2642 126.18 47.9192 120.662L55.0858 108.263L42.6875 101.097L79.5242 101.67L98.5158 133.347L86.1175 126.18L76.0125 143.667H107.833V179.5H82.0325C78.675 179.743 75.3166 179.039 72.3393 177.468C69.362 175.897 66.8853 173.522 65.1908 170.613Z" fill="#C6FFB5"/>
</svg>
