<svg width="82" height="81" viewBox="0 0 82 81" fill="none" xmlns="http://www.w3.org/2000/svg">
<rect width="82" height="81" rx="19" fill="#4CCD25"/>
<path d="M26.9781 14.1289L27.235 24.2756L37.9309 30.2648L26.9781 14.1289ZM53.4763 16.4236L43.5803 20.0768L45.7068 37.4375L53.4763 16.4236ZM65.1784 24.4217L51.5781 30.5089L58.44 42.671L59.0143 43.6931L57.8972 44.0456L49.5626 46.6638L55.3962 51.6658L57.8083 53.7351L54.6568 53.3289L28.8376 49.9962L25.2417 49.5329L28.6028 48.1745L41.5202 42.9598L32.6211 38.964L17.0059 45.9593V59.2291H65.1783V24.4217H65.1784ZM28.841 29.5475L19.0372 31.8484L44.1073 39.1958L28.8411 29.5473L28.841 29.5475Z" fill="white"/>
</svg>
