<svg width="105" height="105" viewBox="0 0 105 105" fill="none" xmlns="http://www.w3.org/2000/svg">
<rect width="105" height="105" rx="10" fill="#4CCD25"/>
<path d="M79.0959 62.7621L72.3251 74.4892C70.998 76.8184 68.5334 78.0371 66.0417 77.8746H60.6251V83.2913L53.8542 71.1038L60.6251 58.9163V64.3329H68.2626L62.2501 53.9059L73.9771 47.135L78.8521 55.585C80.2605 57.6704 80.4501 60.46 79.0959 62.7621ZM44.9438 29.2871H58.4855C61.1396 29.2871 63.4417 30.8309 64.5521 33.0517L67.2605 37.7642L71.9459 35.0559L64.7959 46.9996L50.848 47.2434L55.5334 44.535L51.7146 37.8996L45.7292 48.3267L33.9751 41.5559L38.8501 33.1059C39.9605 30.8579 42.2626 29.2871 44.9438 29.2871ZM33.6771 74.5163L26.9063 62.7892C25.5792 60.4871 25.7688 57.7246 27.1501 55.6392L29.8584 50.9538L25.173 48.2454L39.0938 48.4621L46.2709 60.4329L41.5855 57.7246L37.7667 64.3329H49.7917V77.8746H40.0417C38.7729 77.9664 37.5037 77.7004 36.3786 77.1067C35.2535 76.513 34.3175 75.6155 33.6771 74.5163Z" fill="#C6FFB5"/>
</svg>
