<svg width="72" height="72" viewBox="0 0 72 72" fill="none" xmlns="http://www.w3.org/2000/svg">
<circle cx="36" cy="36" r="36" fill="white" fill-opacity="0.5"/>
<path d="M35.4998 15.97C24.7135 15.97 15.9697 24.7138 15.9697 35.5C15.9697 46.2863 24.7135 55.0301 35.4998 55.0301C46.2861 55.0301 55.0299 46.2863 55.0299 35.5C55.0299 24.7138 46.2861 15.97 35.4998 15.97ZM46.7685 34.1133C45.8435 35.1772 44.6266 35.9462 43.2686 36.325C41.9107 36.7039 40.4714 36.6759 39.1293 36.2445L29.4717 47.3519C28.975 47.9119 28.2773 48.2532 27.5303 48.3014C26.7833 48.3496 26.0475 48.1009 25.4829 47.6093C24.9184 47.1177 24.5708 46.4231 24.5158 45.6766C24.4608 44.9301 24.7028 44.192 25.1892 43.623L34.8615 32.5048C34.2704 31.2727 34.0429 29.8977 34.2056 28.5409C34.3683 27.1841 34.9144 25.9018 35.78 24.8443C36.6456 23.7869 37.7948 22.9982 39.0927 22.5707C40.3906 22.1432 41.7835 22.0947 43.1081 22.4307L39.4061 26.7468L40.6154 30.2675L44.2745 30.9797L47.9832 26.6528C48.4956 27.8861 48.6536 29.238 48.4395 30.5563C48.2254 31.8745 47.6476 33.1069 46.7712 34.1146L46.7685 34.1133Z" fill="white"/>
</svg>
