<svg width="229" height="229" viewBox="0 0 229 229" fill="none" xmlns="http://www.w3.org/2000/svg">
<g clip-path="url(#clip0_451_49)">
<path d="M45.777 40L38 47.777L51.7001 71.4693L60.5847 70.1662L114.816 124.404L110.19 128.846C107.821 131.215 107.821 134.805 110.19 137.174L112.595 139.585C114.964 141.954 118.589 141.954 120.366 139.585L127.403 146.615C126.811 150.169 127.403 154.392 130.364 157.354L162.385 189.19C168.9 195.706 179.562 195.706 186.077 189.19C193.777 182.083 193.706 171.457 187.19 164.941L155.354 132.915C152.392 129.954 148.169 128.769 144.615 129.954L136.838 122.923C138.615 120.554 138.615 116.929 136.838 115.146L134.617 112.931C134.079 112.369 133.432 111.923 132.717 111.617C132.001 111.312 131.231 111.155 130.453 111.155C129.675 111.155 128.905 111.312 128.19 111.617C127.474 111.923 126.828 112.369 126.289 112.931L122.404 116.816L68.1722 62.5847L69.4634 53.7001L45.777 40ZM161.277 40.1836C149.591 39.2122 134.096 46.9596 126.846 53.6942C117.926 62.6143 119.383 74.2768 126.473 85.5366L113.892 98.1231L122.777 108.115C127.515 103.969 134.505 103.969 139.243 108.115L141.654 110.52L142.211 111.077L147.393 105.894C158.102 112.19 169.249 113.097 177.749 104.597C186.041 96.8971 195.033 77.9077 190.886 66.6538L174.231 83.8663C171.862 86.2355 168.272 86.2355 165.903 83.8663L148.685 66.6538C148.123 66.1154 147.676 65.4689 147.371 64.7534C147.066 64.0378 146.908 63.2679 146.908 62.4899C146.908 61.712 147.066 60.9421 147.371 60.2265C147.676 59.5109 148.123 58.8644 148.685 58.326L165.909 41.1135C164.428 40.5923 162.947 40.3258 161.277 40.1836ZM96.1232 114.038L74.6461 135.51C72.3379 134.999 69.9794 134.751 67.6154 134.769C51.0308 134.769 38 147.8 38 164.385C38 180.969 51.0308 194 67.6154 194C84.2 194 97.2308 180.969 97.2308 164.385C97.2308 161.346 96.751 158.426 95.9336 155.684L108.52 143.097L106.672 140.692C101.934 135.954 101.969 128.775 106.115 124.031L96.1232 114.038ZM142.027 141.065C142.767 141.065 143.466 141.208 144.059 141.806L179.046 176.788C180.231 177.972 180.231 179.856 179.046 181.04C177.862 182.225 175.966 182.225 174.782 181.04L139.806 146.059C138.621 144.874 138.621 142.99 139.806 141.806C140.398 141.214 141.287 141.065 142.027 141.065ZM71.6905 149.014L82.9798 160.31L78.9048 175.668L63.5462 179.743L52.2509 168.448L56.326 153.089L71.6905 149.014Z" fill="#C6FFB5"/>
</g>
<defs>
<clipPath id="clip0_451_49">
<rect width="154" height="154" fill="white" transform="translate(38 40)"/>
</clipPath>
</defs>
</svg>
