<svg width="70" height="70" viewBox="0 0 70 70" fill="none" xmlns="http://www.w3.org/2000/svg">
<g clip-path="url(#clip0_413_517)">
<path d="M33.5425 56.3164C33.5425 53.1081 34.4175 50.1914 35.5841 47.5664H35.0008C29.4591 47.5664 24.7925 42.8997 24.7925 37.3581C24.7925 31.8164 29.4591 27.1497 35.0008 27.1497C40.5425 27.1497 45.2091 31.8164 45.2091 37.3581C45.2091 37.9414 45.2091 38.5247 44.9175 38.8164C47.2508 37.9414 49.5841 37.3581 52.5008 37.3581C53.9591 37.3581 55.4175 37.6497 56.8758 37.9414V37.3581C56.8758 36.4831 56.8758 35.3164 56.5842 34.4414L62.7092 29.7747C63.2925 29.1914 63.2925 28.6081 63.0008 28.0247L57.1675 17.8164C56.8758 16.9414 56.2925 16.9414 55.4175 16.9414L48.1258 19.8581C46.6675 18.6914 44.9175 17.8164 43.1675 16.9414L42.0008 9.06641C42.2925 8.77474 41.4175 8.19141 40.8341 8.19141H29.1675C28.5842 8.19141 27.7092 8.77474 27.7092 9.35807L26.5425 17.2331C24.7925 17.8164 23.3342 18.9831 21.5842 19.8581L14.5841 16.9414C13.7091 16.9414 13.1258 16.9414 12.5425 17.8164L6.70915 28.0247C6.41748 28.6081 6.70915 29.1914 7.29248 29.7747L13.4175 34.4414C13.4175 35.3164 13.1258 36.4831 13.1258 37.3581C13.1258 38.2331 13.1258 39.3997 13.4175 40.2747L7.29248 45.2331C6.70915 45.8164 6.70915 46.3997 7.00082 46.9831L12.8341 57.1914C13.1258 57.7747 13.7091 57.7747 14.5841 57.7747L21.8758 54.8581C23.3342 56.0247 25.0841 56.8997 26.8341 57.7747L28.0008 65.6497C28.0008 66.2331 28.5842 66.8164 29.4592 66.8164H36.7508C34.7092 63.6081 33.5425 60.1081 33.5425 56.3164ZM52.5008 44.6497V40.2747L46.0841 46.6914L52.5008 53.1081V49.0247C56.5841 49.0247 59.7925 52.2331 59.7925 56.3164C59.7925 57.4831 59.5008 58.6497 58.9175 59.5247L62.1258 62.7331C65.6258 57.4831 64.1675 50.1914 58.9175 46.6914C57.1675 45.2331 54.8341 44.6497 52.5008 44.6497ZM52.5008 63.6081C48.4175 63.6081 45.2091 60.3997 45.2091 56.3164C45.2091 55.1497 45.5008 53.9831 46.0841 53.1081L42.8758 49.8997C39.3758 55.1497 40.8341 62.4414 46.0841 65.9414C48.1258 67.1081 50.1675 67.9831 52.5008 67.9831V72.3581L58.9175 65.9414L52.5008 59.2331V63.6081Z" fill="#FF0000"/>
</g>
<defs>
<clipPath id="clip0_413_517">
<rect width="70" height="70" fill="white"/>
</clipPath>
</defs>
</svg>
