<svg width="57" height="130" viewBox="0 0 57 130" fill="none" xmlns="http://www.w3.org/2000/svg">
<path d="M29 29L29 130" stroke="#050505" stroke-width="2"/>
<path d="M27.2832 11.5692C27.675 10.3936 29.3352 10.3936 29.727 11.5692L32.0248 18.4698C32.5306 19.9867 33.3828 21.365 34.5137 22.4953C35.6447 23.6257 37.0235 24.4771 38.5407 24.982L45.4377 27.2798C46.6133 27.6717 46.6133 29.3318 45.4377 29.7237L38.5371 32.0215C37.0202 32.5273 35.6419 33.3795 34.5115 34.5104C33.3812 35.6414 32.5298 37.0201 32.0248 38.5373L29.727 45.4343C29.6425 45.6918 29.4789 45.9159 29.2595 46.0749C29.0401 46.2338 28.776 46.3194 28.5051 46.3194C28.2342 46.3194 27.9701 46.2338 27.7507 46.0749C27.5313 45.9159 27.3676 45.6918 27.2832 45.4343L24.9853 38.5338C24.4799 37.0172 23.6283 35.6392 22.498 34.5089C21.3676 33.3786 19.9896 32.5269 18.4731 32.0215L11.5725 29.7237C11.3151 29.6392 11.0909 29.4756 10.932 29.2562C10.7731 29.0367 10.6875 28.7727 10.6875 28.5018C10.6875 28.2308 10.7731 27.9668 10.932 27.7474C11.0909 27.528 11.3151 27.3643 11.5725 27.2798L18.4731 24.982C19.9896 24.4766 21.3676 23.625 22.498 22.4947C23.6283 21.3643 24.4799 19.9863 24.9853 18.4698L27.2832 11.5692Z" fill="black"/>
</svg>
