<svg width="48" height="80" viewBox="0 0 48 80" fill="none" xmlns="http://www.w3.org/2000/svg">
<path d="M24 0L24 56" stroke="black" stroke-width="2"/>
<path d="M22.9753 41.7425C23.3053 40.7525 24.7033 40.7525 25.0333 41.7425L26.9683 47.5535C27.3942 48.8309 28.1118 49.9915 29.0642 50.9434C30.0166 51.8953 31.1777 52.6123 32.4553 53.0375L38.2633 54.9725C39.2533 55.3025 39.2533 56.7005 38.2633 57.0305L32.4523 58.9655C31.1749 59.3914 30.0142 60.109 29.0624 61.0614C28.1105 62.0138 27.3935 63.1749 26.9683 64.4525L25.0333 70.2605C24.9621 70.4773 24.8243 70.6661 24.6396 70.7999C24.4548 70.9337 24.2325 71.0058 24.0043 71.0058C23.7761 71.0058 23.5538 70.9337 23.369 70.7999C23.1842 70.6661 23.0464 70.4773 22.9753 70.2605L21.0403 64.4495C20.6147 63.1724 19.8975 62.012 18.9457 61.0601C17.9938 60.1083 16.8334 59.3911 15.5563 58.9655L9.74529 57.0305C9.52851 56.9594 9.33973 56.8216 9.20589 56.6368C9.07206 56.452 9 56.2297 9 56.0015C9 55.7733 9.07206 55.551 9.20589 55.3662C9.33973 55.1814 9.52851 55.0436 9.74529 54.9725L15.5563 53.0375C16.8334 52.6119 17.9938 51.8947 18.9457 50.9429C19.8975 49.991 20.6147 48.8306 21.0403 47.5535L22.9753 41.7425Z" fill="black"/>
</svg>
