<svg width="69" height="69" viewBox="0 0 69 69" fill="none" xmlns="http://www.w3.org/2000/svg">
<path d="M33.027 14.0048C33.5014 12.5817 35.511 12.5817 35.9854 14.0048L38.7669 22.3582C39.3792 24.1944 40.4107 25.8628 41.7798 27.2312C43.1489 28.5995 44.8179 29.6302 46.6545 30.2414L55.0035 33.023C56.4266 33.4973 56.4266 35.507 55.0035 35.9813L46.6502 38.7629C44.8139 39.3752 43.1455 40.4067 41.7771 41.7758C40.4088 43.1449 39.3782 44.8139 38.7669 46.6505L35.9854 54.9995C35.8831 55.3111 35.685 55.5825 35.4194 55.7748C35.1537 55.9672 34.8341 56.0708 34.5062 56.0708C34.1782 56.0708 33.8586 55.9672 33.593 55.7748C33.3273 55.5825 33.1293 55.3111 33.027 54.9995L30.2454 46.6462C29.6336 44.8103 28.6027 43.1422 27.2344 41.7739C25.8661 40.4056 24.198 39.3747 22.3622 38.7629L14.0089 35.9813C13.6972 35.8791 13.4259 35.681 13.2335 35.4154C13.0411 35.1497 12.9375 34.8301 12.9375 34.5022C12.9375 34.1742 13.0411 33.8546 13.2335 33.5889C13.4259 33.3233 13.6972 33.1252 14.0089 33.023L22.3622 30.2414C24.198 29.6296 25.8661 28.5987 27.2344 27.2304C28.6027 25.8621 29.6336 24.194 30.2454 22.3582L33.027 14.0048Z" fill="black"/>
</svg>
