<svg width="229" height="229" viewBox="0 0 229 229" fill="none" xmlns="http://www.w3.org/2000/svg">
<path d="M75.3438 64.1562C75.3438 55.2549 78.8798 46.7182 85.174 40.424C91.4682 34.1298 100.005 30.5938 108.906 30.5938C117.808 30.5938 126.344 34.1298 132.639 40.424C138.933 46.7182 142.469 55.2549 142.469 64.1562V124.054C148.165 130.513 151.877 138.479 153.158 146.995C154.44 155.511 153.236 164.216 149.693 172.065C146.15 179.915 140.417 186.575 133.182 191.247C125.947 195.918 117.518 198.403 108.906 198.403C100.294 198.403 91.8652 195.918 84.6304 191.247C77.3957 186.575 71.6627 179.915 68.1194 172.065C64.5761 164.216 63.373 155.511 64.6544 146.995C65.9359 138.479 69.6475 130.513 75.3438 124.054V64.1562ZM108.906 47.375C104.456 47.375 100.187 49.143 97.0401 52.2901C93.893 55.4372 92.125 59.7056 92.125 64.1562V131.002L89.5519 133.463C85.5238 137.326 82.7437 142.307 81.5693 147.763C80.3949 153.219 80.8799 158.902 82.9619 164.081C85.0439 169.26 88.6276 173.697 93.2522 176.822C97.8767 179.947 103.33 181.617 108.912 181.617C114.493 181.617 119.947 179.947 124.572 176.822C129.196 173.697 132.78 169.26 134.862 164.081C136.944 158.902 137.429 153.219 136.254 147.763C135.08 142.307 132.3 137.326 128.272 133.463L125.688 131.013V64.1562C125.688 59.7056 123.92 55.4372 120.772 52.2901C117.625 49.143 113.357 47.375 108.906 47.375ZM114.5 92.125C114.5 90.6414 113.911 89.2186 112.862 88.1696C111.813 87.1206 110.39 86.5312 108.906 86.5312C107.423 86.5312 106 87.1206 104.951 88.1696C103.902 89.2186 103.313 90.6414 103.313 92.125V137.826C99.5803 139.145 96.4347 141.742 94.4317 145.156C92.4287 148.571 91.6973 152.584 92.3667 156.485C93.0361 160.387 95.0633 163.926 98.0899 166.478C101.116 169.029 104.948 170.429 108.906 170.429C112.865 170.429 116.696 169.029 119.723 166.478C122.749 163.926 124.776 160.387 125.446 156.485C126.115 152.584 125.384 148.571 123.381 145.156C121.378 141.742 118.232 139.145 114.5 137.826V92.125Z" fill="#C6FFB5"/>
</svg>
