<svg width="72" height="72" viewBox="0 0 72 72" fill="none" xmlns="http://www.w3.org/2000/svg">
<circle cx="36" cy="36" r="36" fill="white" fill-opacity="0.5"/>
<g clip-path="url(#clip0_573_21)">
<path d="M34.3075 19.08C34.6421 19.2195 34.8784 19.525 34.9375 19.8835L35.62 24.0273C34.0909 24.7445 32.8046 25.9132 31.945 27.3675C30.9868 26.7699 29.8581 26.4312 28.6506 26.4312C25.1725 26.4312 22.3506 29.2867 22.3506 32.8062C22.3506 35.1636 23.6171 37.2289 25.5006 38.3312C25.5531 40.4429 26.3668 42.3621 27.6728 43.823L23.9978 46.4261C23.7025 46.6386 23.3218 46.6785 22.9871 46.5324C22.6525 46.3863 22.4162 46.0875 22.3571 45.7289L21.4384 40.1109L15.88 39.1746C15.5256 39.1148 15.2237 38.8757 15.0859 38.5371C14.9481 38.1984 14.9875 37.8132 15.1909 37.5144L18.4459 32.8128L15.1909 28.1113C14.9809 27.8125 14.9415 27.4273 15.0859 27.0886C15.2303 26.75 15.5256 26.5109 15.88 26.4511L21.4384 25.5148L22.3637 19.8902C22.4228 19.5316 22.659 19.2261 22.9937 19.0867C23.3284 18.9472 23.709 18.9871 24.0043 19.1929L28.6506 22.4867L33.2968 19.1929C33.5921 18.9804 33.9728 18.9406 34.3075 19.0867V19.08ZM28.6506 28.5628C29.5562 28.5628 30.4028 28.855 31.0853 29.3531C31.0065 29.6253 30.9409 29.9042 30.8884 30.1898C28.4012 31.1593 26.4784 33.2843 25.7828 35.9273C24.9625 35.1437 24.4506 34.0414 24.4506 32.8128C24.4506 30.4687 26.334 28.5628 28.6506 28.5628ZM33.205 46.891C33.9268 47.3824 34.1237 48.3718 33.6446 49.1023L31.5446 52.2898C31.059 53.0203 30.0812 53.2195 29.3593 52.7347C28.6375 52.25 28.4406 51.2539 28.9196 50.5234L31.0196 47.3359C31.5053 46.6054 32.4831 46.4062 33.205 46.891ZM39.505 46.891C40.2268 47.3824 40.4237 48.3718 39.9446 49.1023L37.8446 52.2898C37.359 53.0203 36.3812 53.2195 35.6593 52.7347C34.9375 52.25 34.7406 51.2539 35.2196 50.5234L37.3196 47.3359C37.8053 46.6054 38.7831 46.4062 39.505 46.891ZM45.805 46.891C46.5268 47.3824 46.7237 48.3718 46.2446 49.1023L44.1446 52.2898C43.659 53.0203 42.6812 53.2195 41.9593 52.7347C41.2375 52.25 41.0406 51.2539 41.5196 50.5234L43.6196 47.3359C44.1053 46.6054 45.0831 46.4062 45.805 46.891ZM52.1049 46.891C52.8268 47.3824 53.0237 48.3718 52.5446 49.1023L50.4446 52.2898C49.959 53.0203 48.9812 53.2195 48.2593 52.7347C47.5375 52.25 47.3406 51.2539 47.8196 50.5234L49.9196 47.3359C50.4053 46.6054 51.3831 46.4062 52.1049 46.891ZM56.994 39.1812C56.994 42.1164 54.6446 44.4937 51.744 44.4937H33.9006C30.4225 44.4937 27.6006 41.6382 27.6006 38.1187C27.6006 34.9578 29.8712 32.3414 32.8506 31.8367V31.7503C32.8506 28.2308 35.6725 25.3753 39.1506 25.3753C41.4409 25.3753 43.4425 26.6105 44.545 28.4566C45.3981 27.8523 46.435 27.5003 47.5506 27.5003C50.4512 27.5003 52.8006 29.8777 52.8006 32.8128C52.8006 33.2046 52.7612 33.5898 52.6759 33.955C55.1303 34.4 56.994 36.5714 56.994 39.1812Z" fill="white"/>
</g>
<defs>
<clipPath id="clip0_573_21">
<rect width="42" height="34" fill="white" transform="translate(15 19)"/>
</clipPath>
</defs>
</svg>
