<svg width="83" height="83" viewBox="0 0 83 83" fill="none" xmlns="http://www.w3.org/2000/svg">
<circle cx="41.5" cy="41.5" r="41.5" fill="white"/>
<path d="M42 12.1045C36.0871 12.1045 30.3071 13.8579 25.3907 17.1428C20.4744 20.4278 16.6426 25.0969 14.3798 30.5597C12.1171 36.0224 11.525 42.0335 12.6786 47.8327C13.8321 53.6319 16.6794 58.9589 20.8604 63.1399C25.0414 67.3209 30.3684 70.1682 36.1676 71.3217C41.9668 72.4753 47.9779 71.8832 53.4406 69.6205C58.9034 67.3577 63.5725 63.5259 66.8575 58.6096C70.1424 53.6932 71.8958 47.9132 71.8958 42.0003C71.8881 34.0738 68.7359 26.4742 63.131 20.8693C57.5261 15.2644 49.9265 12.1122 42 12.1045ZM41.6791 61.1045C40.9056 61.1045 40.1637 60.7972 39.6167 60.2502C39.0698 59.7032 38.7625 58.9614 38.7625 58.1878C38.7625 57.4143 39.0698 56.6724 39.6167 56.1254C40.1637 55.5785 40.9056 55.2712 41.6791 55.2712C42.4527 55.2712 43.1946 55.5785 43.7415 56.1254C44.2885 56.6724 44.5958 57.4143 44.5958 58.1878C44.5958 58.9614 44.2885 59.7032 43.7415 60.2502C43.1946 60.7972 42.4527 61.1045 41.6791 61.1045ZM52.8208 39.7545C52.2216 41.1448 51.3387 42.3947 50.2288 43.4242C49.1189 44.4538 47.8063 45.2404 46.375 45.7337C45.8976 45.942 45.4847 46.2743 45.1791 46.6962C44.8384 47.1505 44.6541 47.7032 44.6541 48.2712V50.342C44.6541 51.1155 44.3468 51.8574 43.7999 52.4044C43.2529 52.9514 42.511 53.2587 41.7375 53.2587C40.9639 53.2587 40.2221 52.9514 39.6751 52.4044C39.1281 51.8574 38.8208 51.1155 38.8208 50.342V48.1837C38.8386 46.4332 39.3991 44.7313 40.425 43.3128C41.4365 41.9641 42.828 40.9484 44.4208 40.3962C45.1111 40.1745 45.7402 39.795 46.2583 39.2878C46.772 38.8264 47.1789 38.2586 47.4509 37.6239C47.7229 36.9893 47.8534 36.303 47.8333 35.6128C47.8208 34.9167 47.6618 34.231 47.3666 33.6003C46.9299 32.797 46.3105 32.1077 45.5583 31.5878C44.7911 31.0323 43.9002 30.6719 42.9625 30.5378C41.5364 30.2666 40.0607 30.4715 38.7625 31.1212C37.4957 31.7459 36.4705 32.7711 35.8458 34.0378C35.5248 34.7418 34.9373 35.2893 34.2125 35.5601C33.4878 35.8308 32.6852 35.8026 31.9812 35.4816C31.2773 35.1606 30.7297 34.573 30.459 33.8483C30.1882 33.1235 30.2165 32.3209 30.5375 31.617C31.6639 29.145 33.5856 27.1212 35.9961 25.8684C38.4065 24.6156 41.167 24.2059 43.8375 24.7045C45.6467 24.9821 47.3652 25.6815 48.8541 26.7462C50.3791 27.8319 51.6279 29.2605 52.5 30.917C53.1691 32.298 53.536 33.8057 53.5763 35.3397C53.6165 36.8737 53.3291 38.3987 52.7333 39.8128L52.8208 39.7545Z" fill="#FF0000"/>
</svg>
