<svg width="105" height="105" viewBox="0 0 105 105" fill="none" xmlns="http://www.w3.org/2000/svg">
<rect width="105" height="105" rx="10" fill="#4CCD25"/>
<g clip-path="url(#clip0_100_246)">
<path d="M48.1223 69.3333V69.0456C48.1223 66.908 46.7886 65.0446 45.1188 63.7109C42.9393 61.9728 41.3541 59.6002 40.5824 56.9215C39.8107 54.2428 39.8907 51.3904 40.8114 48.7592C41.7322 46.128 43.448 43.848 45.7215 42.2349C47.995 40.6218 50.7137 39.7552 53.5014 39.7552C56.289 39.7552 59.0078 40.6218 61.2813 42.2349C63.5548 43.848 65.2706 46.128 66.1914 48.7592C67.1121 51.3904 67.1921 54.2428 66.4204 56.9215C65.6487 59.6002 64.0635 61.9728 61.884 63.7109C60.2115 65.0472 58.8778 66.908 58.8778 69.0456V69.3333M48.1223 69.3333V74.7111C48.1223 75.4243 48.4056 76.1082 48.9098 76.6124C49.4141 77.1167 50.098 77.4 50.8112 77.4H56.1889C56.9021 77.4 57.586 77.1167 58.0903 76.6124C58.5945 76.1082 58.8778 75.4243 58.8778 74.7111V69.3333M48.1223 69.3333H58.8778M75.0112 53.2H77.7001M31.9889 53.2H29.3M53.5001 31.6889V29M68.7111 37.989L70.6121 36.0879M38.2917 37.989L36.388 36.0879M53.5001 61.2667V55.8889" stroke="#C6FFB5" stroke-width="4" stroke-linecap="round" stroke-linejoin="round"/>
</g>
<defs>
<clipPath id="clip0_100_246">
<rect width="55" height="55" fill="white" transform="translate(26 29)"/>
</clipPath>
</defs>
</svg>
