<svg width="77" height="77" viewBox="0 0 77 77" fill="none" xmlns="http://www.w3.org/2000/svg">
<path d="M73.1406 36.5796H67.304C66.3561 22.166 54.8354 10.643 40.4202 9.69509V3.85849C40.4101 3.35593 40.2034 2.87736 39.8445 2.5255C39.4855 2.17365 39.0029 1.97656 38.5002 1.97656C37.9975 1.97656 37.5149 2.17365 37.156 2.5255C36.797 2.87736 36.5903 3.35593 36.5802 3.85849V9.69509C22.1643 10.643 10.6443 22.1652 9.69643 36.5796H3.85983C3.35052 36.5796 2.86206 36.782 2.50192 37.1421C2.14178 37.5023 1.93945 37.9907 1.93945 38.5C1.93945 39.0093 2.14178 39.4978 2.50192 39.8579C2.86206 40.2181 3.35052 40.4204 3.85983 40.4204H9.69566C10.642 54.8363 22.1627 66.3571 36.5802 67.3042V73.1408C36.5903 73.6433 36.797 74.1219 37.156 74.4738C37.5149 74.8256 37.9975 75.0227 38.5002 75.0227C39.0029 75.0227 39.4855 74.8256 39.8445 74.4738C40.2034 74.1219 40.4101 73.6433 40.4202 73.1408V67.3042C54.8369 66.3571 66.3576 54.8356 67.3047 40.4204H73.1406C73.6499 40.4204 74.1384 40.2181 74.4985 39.8579C74.8586 39.4978 75.061 39.0093 75.061 38.5C75.061 37.9907 74.8586 37.5023 74.4985 37.1421C74.1384 36.782 73.6499 36.5796 73.1406 36.5796ZM36.5794 59.6311C26.4062 58.7141 18.285 50.5921 17.3687 40.4204H21.211C22.0981 48.4931 28.5068 54.9018 36.5794 55.7888V59.6311ZM36.5794 21.2112C28.5068 22.0983 22.0981 28.507 21.211 36.5796H17.3687C18.2866 26.4095 26.407 18.2868 36.5787 17.3689L36.5794 21.2112ZM40.4202 17.3697C50.5919 18.2868 58.7123 26.4095 59.6302 36.5796H55.7886C54.9016 28.5062 48.4929 22.0975 40.4202 21.2112V17.3697ZM40.4202 59.6311V55.7896C48.4929 54.9026 54.9016 48.4939 55.7886 40.4212H59.6302C58.7139 50.5921 50.5927 58.7133 40.4202 59.6311Z" fill="#FF0000"/>
<path d="M36.3847 42.7255C36.3847 43.099 36.5394 43.4573 36.8147 43.7215C37.0899 43.9856 37.4633 44.134 37.8526 44.134H40.7884C41.1777 44.134 41.5511 43.9856 41.8264 43.7215C42.1017 43.4573 42.2563 43.099 42.2563 42.7255V34.2743C42.2563 33.9007 42.1017 33.5424 41.8264 33.2783C41.5511 33.0141 41.1777 32.8657 40.7884 32.8657H37.8526C37.4633 32.8657 37.0899 33.0141 36.8147 33.2783C36.5394 33.5424 36.3847 33.9007 36.3847 34.2743V37.0913C36.3847 37.4649 36.5394 37.8232 36.8147 38.0873C37.0899 38.3515 37.4633 38.4999 37.8526 38.4999H42.2563M27.2319 42.7255C27.2319 43.099 27.3866 43.4573 27.6619 43.7215C27.9372 43.9856 28.3105 44.134 28.6998 44.134H31.6356C32.0249 44.134 32.3983 43.9856 32.6736 43.7215C32.9489 43.4573 33.1035 43.099 33.1035 42.7255V34.2743C33.1035 33.9007 32.9489 33.5424 32.6736 33.2783C32.3983 33.0141 32.0249 32.8657 31.6356 32.8657H28.6998C28.3105 32.8657 27.9372 33.0141 27.6619 33.2783C27.3866 33.5424 27.2319 33.9007 27.2319 34.2743V37.0913C27.2319 37.4649 27.3866 37.8232 27.6619 38.0873C27.9372 38.3515 28.3105 38.4999 28.6998 38.4999H33.1035" stroke="white" stroke-width="2" stroke-linecap="round" stroke-linejoin="round"/>
<path d="M45.7225 41.1047C44.7915 41.1047 44.1343 40.4161 44.1343 39.3329C44.1343 38.2496 44.7915 37.561 45.7225 37.561C46.6536 37.561 47.3016 38.2404 47.3016 39.3329C47.3016 40.4253 46.6536 41.1047 45.7225 41.1047ZM45.1657 44.0608L49.5288 37.6345H50.615L46.2519 44.0608H45.1657ZM45.7225 40.3519C46.1241 40.3519 46.3888 40.0214 46.3888 39.3329C46.3888 38.6443 46.1241 38.3138 45.7225 38.3138C45.33 38.3138 45.0562 38.6535 45.0562 39.3329C45.0562 40.0122 45.33 40.3519 45.7225 40.3519ZM50.0582 44.1342C49.1363 44.1342 48.4791 43.4457 48.4791 42.3624C48.4791 41.2791 49.1363 40.5906 50.0582 40.5906C50.9893 40.5906 51.6465 41.2791 51.6465 42.3624C51.6465 43.4457 50.9893 44.1342 50.0582 44.1342ZM50.0582 43.3814C50.4599 43.3814 50.7246 43.0417 50.7246 42.3624C50.7246 41.683 50.4599 41.3434 50.0582 41.3434C49.6657 41.3434 49.3919 41.6739 49.3919 42.3624C49.3919 43.0509 49.6657 43.3814 50.0582 43.3814Z" fill="white"/>
</svg>
