<svg width="383" height="383" viewBox="0 0 383 383" fill="none" xmlns="http://www.w3.org/2000/svg">
<path d="M50.3478 190.024V267.65C50.3478 284.845 64.303 298.8 81.4978 298.8H86.0902C88.1329 308.859 93.5905 317.904 101.538 324.4C109.486 330.896 119.435 334.445 129.7 334.445C139.965 334.445 149.914 330.896 157.862 324.4C165.81 317.904 171.268 308.859 173.31 298.8H192.89C194.933 308.859 200.39 317.904 208.338 324.4C216.286 330.896 226.235 334.445 236.5 334.445C246.765 334.445 256.714 330.896 264.662 324.4C272.61 317.904 278.067 308.859 280.11 298.8H307.7C314.781 298.8 321.573 295.987 326.58 290.98C331.587 285.972 334.4 279.181 334.4 272.1V205.101C334.4 200.961 333.437 196.878 331.588 193.175L302.787 135.556C300.569 131.121 297.159 127.391 292.94 124.784C288.721 122.178 283.859 120.798 278.9 120.8H263.2V98.5499C263.2 90.2884 259.918 82.3653 254.077 76.5235C248.235 70.6818 240.312 67.3999 232.05 67.3999H194.848C198.729 73.1671 200.918 80.0735 200.918 87.3003V154.3C200.919 160.91 199.08 167.391 195.606 173.015C192.132 178.639 187.161 183.185 181.249 186.144L127.849 212.844C122.905 215.316 117.454 216.603 111.927 216.603C106.4 216.603 100.948 215.316 96.0048 212.844L50.3478 190.024ZM263.2 138.6H278.9C280.554 138.597 282.177 139.055 283.586 139.922C284.994 140.79 286.133 142.034 286.874 143.513L311.118 192H263.2V138.6ZM129.7 263.2C136.781 263.2 143.573 266.013 148.58 271.02C153.587 276.027 156.4 282.819 156.4 289.9C156.4 296.981 153.587 303.772 148.58 308.78C143.573 313.787 136.781 316.6 129.7 316.6C122.619 316.6 115.828 313.787 110.82 308.78C105.813 303.772 103 296.981 103 289.9C103 282.819 105.813 276.027 110.82 271.02C115.828 266.013 122.619 263.2 129.7 263.2ZM209.8 289.9C209.8 286.394 210.491 282.922 211.833 279.682C213.174 276.443 215.141 273.499 217.62 271.02C220.1 268.541 223.043 266.574 226.283 265.232C229.522 263.891 232.994 263.2 236.5 263.2C240.006 263.2 243.478 263.891 246.718 265.232C249.957 266.574 252.901 268.541 255.38 271.02C257.859 273.499 259.826 276.443 261.168 279.682C262.51 282.922 263.2 286.394 263.2 289.9C263.2 296.981 260.387 303.772 255.38 308.78C250.373 313.787 243.581 316.6 236.5 316.6C229.419 316.6 222.628 313.787 217.62 308.78C212.613 303.772 209.8 296.981 209.8 289.9ZM40.7002 87.3003V154.3C40.6987 157.607 41.6189 160.85 43.3575 163.664C45.0962 166.478 47.5847 168.752 50.5436 170.231L103.944 196.931C106.414 198.165 109.138 198.808 111.9 198.808C114.662 198.808 117.386 198.165 119.857 196.931L173.257 170.231C176.216 168.752 178.704 166.478 180.443 163.664C182.182 160.85 183.102 157.607 183.1 154.3V87.3003C183.098 83.9955 182.177 80.7565 180.438 77.9459C178.7 75.1354 176.213 72.8643 173.257 71.3871L119.857 44.6871C117.386 43.4525 114.662 42.8098 111.9 42.8098C109.138 42.8098 106.414 43.4525 103.944 44.6871L50.5436 71.3871C47.5874 72.8643 45.1007 75.1354 43.3622 77.9459C41.6237 80.7565 40.702 83.9955 40.7002 87.3003ZM70.8534 85.9119L111.9 103.231L152.947 85.9119C155.089 85.145 157.444 85.2276 159.527 86.1428C161.61 87.058 163.263 88.7362 164.147 90.8326C165.032 92.929 165.079 95.2845 164.281 97.415C163.482 99.5455 161.898 101.289 159.853 102.288L120.8 118.806V165.3C120.8 167.66 119.863 169.924 118.193 171.593C116.524 173.262 114.261 174.2 111.9 174.2C109.54 174.2 107.276 173.262 105.607 171.593C103.938 169.924 103 167.66 103 165.3V118.789L63.947 102.306C62.8303 101.88 61.8108 101.235 60.949 100.407C60.0873 99.5793 59.401 98.5865 58.9312 97.4879C58.4614 96.3892 58.2176 95.2073 58.2143 94.0124C58.2111 92.8175 58.4485 91.6342 58.9124 90.5331C59.3763 89.4319 60.0572 88.4354 60.9145 87.6031C61.7717 86.7707 62.7878 86.1195 63.9022 85.6882C65.0165 85.257 66.2063 85.0545 67.4005 85.093C68.5948 85.1314 69.7691 85.4099 70.8534 85.9119Z" fill="#0070C0"/>
</svg>
