<svg width="383" height="383" viewBox="0 0 383 383" fill="none" xmlns="http://www.w3.org/2000/svg">
<path d="M86.2083 326.875C81.9465 326.875 78.3766 325.431 75.4987 322.543C72.6207 319.655 71.1767 316.085 71.1667 311.833V296.792H56.125V236.625C56.125 232.363 57.569 228.793 60.457 225.915C63.345 223.037 66.9149 221.593 71.1667 221.583H86.2083V116.292C86.2083 99.7458 92.0997 85.5816 103.882 73.799C115.665 62.0163 129.829 56.125 146.375 56.125C162.921 56.125 177.085 62.0163 188.868 73.799C200.65 85.5816 206.542 99.7458 206.542 116.292V266.708C206.542 274.981 209.49 282.066 215.386 287.962C221.283 293.859 228.362 296.802 236.625 296.792C244.888 296.782 251.973 293.838 257.879 287.962C263.785 282.086 266.728 275.001 266.708 266.708V161.417H251.667C247.405 161.417 243.835 159.973 240.957 157.085C238.079 154.197 236.635 150.627 236.625 146.375V86.2083H251.667V71.1667C251.667 66.9049 253.111 63.335 255.999 60.457C258.887 57.579 262.457 56.135 266.708 56.125H296.792C301.053 56.125 304.628 57.569 307.516 60.457C310.404 63.345 311.843 66.9149 311.833 71.1667V86.2083H326.875V146.375C326.875 150.637 325.431 154.212 322.543 157.1C319.655 159.988 316.085 161.427 311.833 161.417H296.792V266.708C296.792 283.254 290.9 297.418 279.118 309.201C267.335 320.984 253.171 326.875 236.625 326.875C220.079 326.875 205.915 320.984 194.132 309.201C182.35 297.418 176.458 283.254 176.458 266.708V116.292C176.458 108.019 173.515 100.939 167.629 95.0528C161.743 89.1665 154.658 86.2184 146.375 86.2083C138.092 86.1983 131.012 89.1465 125.136 95.0528C119.26 100.959 116.312 108.039 116.292 116.292V221.583H131.333C135.595 221.583 139.17 223.027 142.058 225.915C144.946 228.803 146.385 232.373 146.375 236.625V296.792H131.333V311.833C131.333 316.095 129.889 319.67 127.001 322.558C124.113 325.446 120.543 326.885 116.292 326.875H86.2083Z" fill="#0070C0"/>
</svg>
