<svg width="239" height="48" viewBox="0 0 239 48" fill="none" xmlns="http://www.w3.org/2000/svg">
<path fill-rule="evenodd" clip-rule="evenodd" d="M0 36.6688V0H49.1601L64.7379 15.5553C63.8209 16.1951 63.221 17.2579 63.221 18.4608C63.221 19.5988 63.7579 20.6114 64.5922 21.2591L49.1601 36.6688H0ZM65.5206 16.3368L67.5211 18.3344L65.3659 20.4864C64.7231 20.0427 64.3019 19.301 64.3019 18.4608C64.3019 17.555 64.7915 16.7636 65.5206 16.3368Z" fill="#05BC58"/>
<path d="M18.6805 23.8043C18.6805 26.0549 17.8828 27.837 16.2874 29.1508C14.692 30.4537 12.5306 31.1052 9.80331 31.1052C7.42096 31.1052 5.50215 30.6206 4.04688 29.6515V25.2257C6.12738 26.3887 8.05697 26.9702 9.83565 26.9702C11.043 26.9702 11.9862 26.744 12.6654 26.2918C13.3445 25.8287 13.684 25.1988 13.684 24.4019C13.684 23.9389 13.6086 23.5351 13.4577 23.1905C13.3175 22.8351 13.1127 22.5067 12.8432 22.2052C12.5737 21.9037 11.9054 21.3545 10.8382 20.5576C9.35055 19.4916 8.30491 18.4363 7.70124 17.3917C7.09757 16.3472 6.79573 15.2219 6.79573 14.0158C6.79573 12.6267 7.12991 11.3884 7.79826 10.3008C8.46661 9.20239 9.41523 8.35169 10.6441 7.74867C11.8838 7.13487 13.3068 6.82797 14.9129 6.82797C17.2522 6.82797 19.392 7.36101 21.3323 8.42707L19.5698 12.1906C17.8882 11.3938 16.3359 10.9953 14.9129 10.9953C14.0182 10.9953 13.2852 11.2376 12.7139 11.7222C12.1425 12.2068 11.8569 12.8475 11.8569 13.6443C11.8569 14.3012 12.0347 14.8773 12.3905 15.3727C12.7462 15.8572 13.5439 16.5033 14.7836 17.311C16.088 18.1724 17.0635 19.1254 17.7103 20.17C18.3571 21.2037 18.6805 22.4152 18.6805 23.8043Z" fill="#FF0000"/>
<path d="M22.1324 30.7822L27.1774 7.16718H32.1092L27.0642 30.7822H22.1324Z" fill="white"/>
<path d="M45.8935 25.1611H38.2453L35.4641 30.7822H30.2897L42.6758 7.07026H48.7071L51.084 30.7822H46.2816L45.8935 25.1611ZM45.651 20.9614L45.2306 15.308C45.1228 13.8974 45.0689 12.5352 45.0689 11.2215V10.64C44.5946 11.9322 44.0071 13.2998 43.3064 14.7427L40.2665 20.9614H45.651Z" fill="#0070C0"/>
<path d="M78.0128 16.6273C78.0128 17.5198 77.7232 18.2038 77.144 18.6793C76.5648 19.1548 75.7404 19.3925 74.6709 19.3925H73.7905V22.5904H72.4062V14.0433H74.8446C75.9026 14.0433 76.6942 14.2615 77.2193 14.6981C77.7483 15.1346 78.0128 15.7776 78.0128 16.6273ZM73.7905 18.2174H74.5261C75.2365 18.2174 75.7578 18.0927 76.0899 17.8433C76.4219 17.5939 76.588 17.2041 76.588 16.6741C76.588 16.183 76.4393 15.8166 76.142 15.575C75.8447 15.3333 75.3813 15.2125 74.752 15.2125H73.7905V18.2174Z" fill="white"/>
<path d="M82.7475 22.5904H81.3633V15.2418H78.8728V14.0433H85.238V15.2418H82.7475V22.5904Z" fill="white"/>
<path d="M86.3123 21.8596C86.3123 21.5751 86.3857 21.3568 86.5324 21.2048C86.6791 21.0528 86.8915 20.9768 87.1695 20.9768C87.4514 20.9768 87.6657 21.0567 87.8124 21.2165C87.9591 21.3724 88.0325 21.5868 88.0325 21.8596C88.0325 22.1363 87.9572 22.3565 87.8066 22.5202C87.6599 22.68 87.4475 22.7599 87.1695 22.7599C86.8915 22.7599 86.6791 22.68 86.5324 22.5202C86.3857 22.3604 86.3123 22.1402 86.3123 21.8596Z" fill="white"/>
<path d="M98.1275 20.2694C98.1275 21.0294 97.8553 21.6258 97.3108 22.0584C96.7664 22.491 96.0154 22.7073 95.0578 22.7073C94.1002 22.7073 93.3164 22.5572 92.7063 22.2571V20.9359C93.0924 21.1191 93.5017 21.2633 93.9342 21.3685C94.3705 21.4738 94.7759 21.5264 95.1504 21.5264C95.6987 21.5264 96.1022 21.4211 96.3609 21.2107C96.6235 21.0002 96.7548 20.7177 96.7548 20.363C96.7548 20.0434 96.6351 19.7725 96.3957 19.5504C96.1563 19.3282 95.6621 19.0651 94.913 18.7611C94.1407 18.4454 93.5963 18.0849 93.2797 17.6796C92.9631 17.2743 92.8047 16.7871 92.8047 16.2181C92.8047 15.5048 93.0557 14.9436 93.5577 14.5344C94.0596 14.1251 94.7334 13.9205 95.579 13.9205C96.3899 13.9205 97.1969 14.0998 98 14.4584L97.5599 15.5984C96.8069 15.2788 96.1351 15.119 95.5443 15.119C95.0964 15.119 94.7566 15.2184 94.5249 15.4171C94.2933 15.612 94.1774 15.8712 94.1774 16.1947C94.1774 16.4168 94.2237 16.6078 94.3164 16.7676C94.4091 16.9235 94.5616 17.0716 94.774 17.2119C94.9863 17.3522 95.3686 17.5373 95.9208 17.7673C96.5424 18.0284 96.9981 18.272 97.2876 18.4981C97.5772 18.7241 97.7896 18.9794 97.9248 19.2639C98.0599 19.5484 98.1275 19.8836 98.1275 20.2694Z" fill="white"/>
<path d="M99.8852 22.5904V14.0433H101.269V22.5904H99.8852Z" fill="white"/>
<path d="M108.512 20.2694C108.512 21.0294 108.24 21.6258 107.695 22.0584C107.151 22.491 106.4 22.7073 105.442 22.7073C104.485 22.7073 103.701 22.5572 103.091 22.2571V20.9359C103.477 21.1191 103.886 21.2633 104.319 21.3685C104.755 21.4738 105.16 21.5264 105.535 21.5264C106.083 21.5264 106.487 21.4211 106.746 21.2107C107.008 21.0002 107.139 20.7177 107.139 20.363C107.139 20.0434 107.02 19.7725 106.78 19.5504C106.541 19.3282 106.047 19.0651 105.298 18.7611C104.525 18.4454 103.981 18.0849 103.664 17.6796C103.348 17.2743 103.189 16.7871 103.189 16.2181C103.189 15.5048 103.44 14.9436 103.942 14.5344C104.444 14.1251 105.118 13.9205 105.964 13.9205C106.774 13.9205 107.581 14.0998 108.385 14.4584L107.944 15.5984C107.192 15.2788 106.52 15.119 105.929 15.119C105.481 15.119 105.141 15.2184 104.91 15.4171C104.678 15.612 104.562 15.8712 104.562 16.1947C104.562 16.4168 104.608 16.6078 104.701 16.7676C104.794 16.9235 104.946 17.0716 105.159 17.2119C105.371 17.3522 105.753 17.5373 106.305 17.7673C106.927 18.0284 107.383 18.272 107.672 18.4981C107.962 18.7241 108.174 18.9794 108.309 19.2639C108.444 19.5484 108.512 19.8836 108.512 20.2694Z" fill="white"/>
<path d="M113.195 22.5904H111.81V15.2418H109.32V14.0433H115.685V15.2418H113.195V22.5904Z" fill="white"/>
<path d="M121.897 22.5904H117.107V14.0433H121.897V15.2242H118.491V17.551H121.683V18.7202H118.491V21.4036H121.897V22.5904Z" fill="white"/>
<path d="M127.512 22.5904L125.056 15.4522H125.01C125.075 16.5123 125.108 17.5062 125.108 18.4338V22.5904H123.851V14.0433H125.803L128.155 20.8424H128.19L130.611 14.0433H132.568V22.5904H131.236V18.3636C131.236 17.9388 131.246 17.3853 131.265 16.7033C131.288 16.0212 131.308 15.6081 131.323 15.4639H131.277L128.734 22.5904H127.512Z" fill="white"/>
<path d="M138.117 22.5904V14.0433H139.501V22.5904H138.117Z" fill="white"/>
<path d="M148.915 22.5904H147.218L143.054 15.7796H143.008L143.037 16.1596C143.091 16.8845 143.118 17.5471 143.118 18.1473V22.5904H141.861V14.0433H143.541L147.693 20.819H147.728C147.72 20.7293 147.705 20.4039 147.682 19.8427C147.659 19.2775 147.647 18.8371 147.647 18.5214V14.0433H148.915V22.5904Z" fill="white"/>
<path d="M158.788 18.3051C158.788 19.6965 158.442 20.7781 157.751 21.5498C157.064 22.3214 156.089 22.7073 154.826 22.7073C153.548 22.7073 152.565 22.3253 151.878 21.5614C151.194 20.7937 150.853 19.7043 150.853 18.2934C150.853 16.8826 151.196 15.7991 151.884 15.043C152.575 14.2869 153.559 13.9088 154.837 13.9088C156.096 13.9088 157.069 14.2927 157.757 15.0605C158.444 15.8283 158.788 16.9099 158.788 18.3051ZM152.324 18.3051C152.324 19.3574 152.534 20.1564 152.955 20.7021C153.376 21.2438 154 21.5147 154.826 21.5147C155.648 21.5147 156.268 21.2458 156.685 20.7079C157.106 20.1701 157.316 19.3691 157.316 18.3051C157.316 17.2567 157.108 16.4616 156.691 15.9199C156.278 15.3782 155.66 15.1073 154.837 15.1073C154.007 15.1073 153.38 15.3782 152.955 15.9199C152.534 16.4616 152.324 17.2567 152.324 18.3051Z" fill="white"/>
<path d="M165.549 14.0433H166.986L164.02 22.5904H162.561L159.607 14.0433H161.032L162.798 19.3574C162.891 19.6108 162.989 19.9382 163.094 20.3396C163.198 20.7371 163.266 21.0333 163.296 21.2282C163.347 20.932 163.424 20.589 163.528 20.1993C163.632 19.8095 163.717 19.5211 163.783 19.3341L165.549 14.0433Z" fill="white"/>
<path d="M173.475 22.5904L172.63 20.2168H169.392L168.564 22.5904H167.104L170.273 14.0082H171.778L174.947 22.5904H173.475ZM172.265 19.0125L171.472 16.6858C171.414 16.5299 171.332 16.2843 171.228 15.9491C171.128 15.614 171.058 15.3684 171.02 15.2125C170.915 15.6919 170.763 16.2161 170.562 16.7851L169.798 19.0125H172.265Z" fill="white"/>
<path d="M181.066 20.2694C181.066 21.0294 180.793 21.6258 180.249 22.0584C179.705 22.491 178.954 22.7073 177.996 22.7073C177.038 22.7073 176.255 22.5572 175.644 22.2571V20.9359C176.031 21.1191 176.44 21.2633 176.872 21.3685C177.309 21.4738 177.714 21.5264 178.089 21.5264C178.637 21.5264 179.04 21.4211 179.299 21.2107C179.562 21.0002 179.693 20.7177 179.693 20.363C179.693 20.0434 179.573 19.7725 179.334 19.5504C179.094 19.3282 178.6 19.0651 177.851 18.7611C177.079 18.4454 176.534 18.0849 176.218 17.6796C175.901 17.2743 175.743 16.7871 175.743 16.2181C175.743 15.5048 175.994 14.9436 176.496 14.5344C176.998 14.1251 177.672 13.9205 178.517 13.9205C179.328 13.9205 180.135 14.0998 180.938 14.4584L180.498 15.5984C179.745 15.2788 179.073 15.119 178.482 15.119C178.035 15.119 177.695 15.2184 177.463 15.4171C177.231 15.612 177.116 15.8712 177.116 16.1947C177.116 16.4168 177.162 16.6078 177.255 16.7676C177.347 16.9235 177.5 17.0716 177.712 17.2119C177.924 17.3522 178.307 17.5373 178.859 17.7673C179.481 18.0284 179.936 18.272 180.226 18.4981C180.515 18.7241 180.728 18.9794 180.863 19.2639C180.998 19.5484 181.066 19.8836 181.066 20.2694Z" fill="white"/>
<path d="M182.823 22.5904V14.0433H184.208V22.5904H182.823Z" fill="white"/>
<path d="M195.021 22.5904L194.175 20.2168H190.938L190.109 22.5904H188.65L191.818 14.0082H193.324L196.492 22.5904H195.021ZM193.81 19.0125L193.017 16.6858C192.959 16.5299 192.878 16.2843 192.774 15.9491C192.673 15.614 192.604 15.3684 192.565 15.2125C192.461 15.6919 192.308 16.2161 192.107 16.7851L191.343 19.0125H193.81Z" fill="white"/>
<path d="M204.192 22.5904H202.588L199.929 18.7202L199.113 19.3925V22.5904H197.728V14.0433H199.113V18.1239C199.491 17.6562 199.867 17.2061 200.242 16.7734L202.53 14.0433H204.105C202.626 15.7971 201.566 17.0463 200.925 17.7907L204.192 22.5904Z" fill="white"/>
<path d="M212.072 14.0433V19.5738C212.072 20.2051 211.937 20.7586 211.666 21.2341C211.4 21.7057 211.012 22.0701 210.502 22.3273C209.996 22.5806 209.39 22.7073 208.684 22.7073C207.633 22.7073 206.817 22.4267 206.234 21.8654C205.651 21.3042 205.359 20.5325 205.359 19.5504V14.0433H206.749V19.451C206.749 20.1564 206.911 20.6767 207.236 21.0119C207.56 21.3471 208.058 21.5147 208.73 21.5147C210.035 21.5147 210.688 20.8229 210.688 19.4393V14.0433H212.072Z" fill="white"/>
<path d="M215.741 18.0187H216.702C217.347 18.0187 217.814 17.8979 218.104 17.6562C218.394 17.4146 218.538 17.056 218.538 16.5805C218.538 16.0972 218.382 15.7504 218.069 15.5399C217.756 15.3294 217.285 15.2242 216.656 15.2242H215.741V18.0187ZM215.741 19.1762V22.5904H214.357V14.0433H216.749C217.841 14.0433 218.65 14.2499 219.175 14.663C219.701 15.0761 219.963 15.6997 219.963 16.5338C219.963 17.5978 219.415 18.3558 218.318 18.8079L220.71 22.5904H219.135L217.108 19.1762H215.741Z" fill="white"/>
<path d="M227.316 22.5904L226.47 20.2168H223.232L222.404 22.5904H220.945L224.113 14.0082H225.619L228.787 22.5904H227.316ZM226.105 19.0125L225.312 16.6858C225.254 16.5299 225.173 16.2843 225.069 15.9491C224.968 15.614 224.899 15.3684 224.86 15.2125C224.756 15.6919 224.603 16.2161 224.402 16.7851L223.638 19.0125H226.105Z" fill="white"/>
<path d="M234.906 20.2694C234.906 21.0294 234.634 21.6258 234.089 22.0584C233.545 22.491 232.794 22.7073 231.836 22.7073C230.879 22.7073 230.095 22.5572 229.485 22.2571V20.9359C229.871 21.1191 230.28 21.2633 230.713 21.3685C231.149 21.4738 231.554 21.5264 231.929 21.5264C232.477 21.5264 232.881 21.4211 233.139 21.2107C233.402 21.0002 233.533 20.7177 233.533 20.363C233.533 20.0434 233.414 19.7725 233.174 19.5504C232.935 19.3282 232.44 19.0651 231.691 18.7611C230.919 18.4454 230.375 18.0849 230.058 17.6796C229.741 17.2743 229.583 16.7871 229.583 16.2181C229.583 15.5048 229.834 14.9436 230.336 14.5344C230.838 14.1251 231.512 13.9205 232.357 13.9205C233.168 13.9205 233.975 14.0998 234.778 14.4584L234.338 15.5984C233.585 15.2788 232.913 15.119 232.323 15.119C231.875 15.119 231.535 15.2184 231.303 15.4171C231.072 15.612 230.956 15.8712 230.956 16.1947C230.956 16.4168 231.002 16.6078 231.095 16.7676C231.188 16.9235 231.34 17.0716 231.552 17.2119C231.765 17.3522 232.147 17.5373 232.699 17.7673C233.321 18.0284 233.776 18.272 234.066 18.4981C234.356 18.7241 234.568 18.9794 234.703 19.2639C234.838 19.5484 234.906 19.8836 234.906 20.2694Z" fill="white"/>
<path d="M236.664 22.5904V14.0433H238.048V22.5904H236.664Z" fill="white"/>
<path d="M0.503906 46.9665V41.8055H1.33218V46.9665H0.503906Z" fill="white"/>
<path d="M6.02968 46.9665H5.21181V44.566C5.21181 44.2648 5.15174 44.04 5.0316 43.8918C4.91377 43.7435 4.72547 43.6694 4.46671 43.6694C4.12246 43.6694 3.87063 43.7729 3.71122 43.98C3.5518 44.1871 3.47209 44.5343 3.47209 45.0214V46.9665H2.65769V43.0622H3.29535L3.40971 43.5741H3.4513C3.56682 43.3881 3.73086 43.2446 3.94341 43.1434C4.15597 43.0422 4.39162 42.9916 4.65039 42.9916C5.56992 42.9916 6.02968 43.4682 6.02968 44.4213V46.9665Z" fill="white"/>
<path d="M10.6059 46.9665H9.78802V44.566C9.78802 44.2648 9.72795 44.04 9.60781 43.8918C9.48998 43.7435 9.30168 43.6694 9.04292 43.6694C8.69867 43.6694 8.44684 43.7729 8.28743 43.98C8.12801 44.1871 8.0483 44.5343 8.0483 45.0214V46.9665H7.2339V43.0622H7.87156L7.98592 43.5741H8.02751C8.14303 43.3881 8.30707 43.2446 8.51962 43.1434C8.73218 43.0422 8.96783 42.9916 9.2266 42.9916C10.1461 42.9916 10.6059 43.4682 10.6059 44.4213V46.9665Z" fill="white"/>
<path d="M15.2098 45.0073C15.2098 45.6451 15.0493 46.1428 14.7281 46.5006C14.407 46.8583 13.9599 47.0372 13.3869 47.0372C13.0288 47.0372 12.7123 46.9548 12.4374 46.79C12.1624 46.6253 11.951 46.3888 11.8032 46.0805C11.6553 45.7722 11.5814 45.4145 11.5814 45.0073C11.5814 44.3742 11.7408 43.88 12.0596 43.5246C12.3785 43.1693 12.8278 42.9916 13.4077 42.9916C13.9622 42.9916 14.4012 43.174 14.7246 43.5388C15.0481 43.9012 15.2098 44.3907 15.2098 45.0073ZM12.42 45.0073C12.42 45.9087 12.747 46.3594 13.4008 46.3594C14.0477 46.3594 14.3712 45.9087 14.3712 45.0073C14.3712 44.1154 14.0454 43.6694 13.3939 43.6694C13.0519 43.6694 12.8036 43.7847 12.6488 44.0153C12.4963 44.246 12.42 44.5766 12.42 45.0073Z" fill="white"/>
<path d="M17.0933 46.9665L15.6378 43.0622H16.4972L17.277 45.3321C17.411 45.7133 17.4918 46.0216 17.5196 46.257H17.5473C17.5681 46.0875 17.6489 45.7792 17.7899 45.3321L18.5696 43.0622H19.436L17.9735 46.9665H17.0933Z" fill="white"/>
<path d="M22.4874 46.9665L22.3245 46.4229H22.2968C22.1119 46.6606 21.926 46.823 21.7388 46.9101C21.5517 46.9948 21.3114 47.0372 21.018 47.0372C20.6414 47.0372 20.3468 46.9336 20.1343 46.7265C19.924 46.5194 19.8189 46.2264 19.8189 45.8475C19.8189 45.445 19.9656 45.1415 20.259 44.9367C20.5524 44.732 20.9995 44.6202 21.6002 44.6013L22.2621 44.5802V44.3719C22.2621 44.1224 22.2044 43.9365 22.0888 43.8141C21.9756 43.6894 21.7989 43.627 21.5586 43.627C21.3622 43.627 21.1739 43.6564 20.9937 43.7153C20.8135 43.7741 20.6402 43.8435 20.4739 43.9235L20.2105 43.3305C20.4184 43.2199 20.646 43.1363 20.8932 43.0798C21.1404 43.021 21.3738 42.9916 21.5933 42.9916C22.0807 42.9916 22.4481 43.0998 22.6953 43.3164C22.9448 43.5329 23.0696 43.873 23.0696 44.3366V46.9665H22.4874ZM21.2744 46.4017C21.5702 46.4017 21.807 46.3182 21.9849 46.1511C22.1651 45.9816 22.2552 45.7451 22.2552 45.4415V45.1026L21.7631 45.1238C21.3795 45.1379 21.1 45.2038 20.9244 45.3215C20.7511 45.4368 20.6645 45.6145 20.6645 45.8545C20.6645 46.0287 20.7153 46.164 20.817 46.2605C20.9186 46.3547 21.0711 46.4017 21.2744 46.4017Z" fill="white"/>
<path d="M25.7051 46.3664C25.9038 46.3664 26.1025 46.3347 26.3012 46.2711V46.8959C26.2111 46.936 26.0944 46.9689 25.9511 46.9948C25.8102 47.023 25.6635 47.0372 25.511 47.0372C24.7393 47.0372 24.3535 46.6229 24.3535 45.7945V43.6906H23.8302V43.3234L24.3916 43.0198L24.6689 42.1938H25.1714V43.0622H26.263V43.6906H25.1714V45.7804C25.1714 45.9805 25.2199 46.1287 25.3169 46.2252C25.4163 46.3194 25.5457 46.3664 25.7051 46.3664Z" fill="white"/>
<path d="M27.9559 46.9665H27.1415V43.0622H27.9559V46.9665ZM27.093 42.0279C27.093 41.8796 27.1322 41.7654 27.2108 41.6854C27.2917 41.6054 27.406 41.5654 27.5539 41.5654C27.6971 41.5654 27.808 41.6054 27.8866 41.6854C27.9675 41.7654 28.0079 41.8796 28.0079 42.0279C28.0079 42.1691 27.9675 42.2808 27.8866 42.3632C27.808 42.4432 27.6971 42.4832 27.5539 42.4832C27.406 42.4832 27.2917 42.4432 27.2108 42.3632C27.1322 42.2808 27.093 42.1691 27.093 42.0279Z" fill="white"/>
<path d="M30.0681 46.9665L28.6126 43.0622H29.472L30.2518 45.3321C30.3858 45.7133 30.4666 46.0216 30.4944 46.257H30.5221C30.5429 46.0875 30.6237 45.7792 30.7647 45.3321L31.5444 43.0622H32.4108L30.9483 46.9665H30.0681Z" fill="white"/>
<path d="M34.7379 47.0372C34.1418 47.0372 33.6751 46.8606 33.3378 46.5076C33.0028 46.1523 32.8353 45.6639 32.8353 45.0426C32.8353 44.4048 32.9912 43.9035 33.3031 43.5388C33.615 43.174 34.0436 42.9916 34.5889 42.9916C35.0948 42.9916 35.4945 43.1481 35.7879 43.4611C36.0814 43.7741 36.2281 44.2048 36.2281 44.7531V45.2015H33.6739C33.6855 45.5804 33.786 45.8722 33.9754 46.0769C34.1649 46.2793 34.4317 46.3805 34.776 46.3805C35.0024 46.3805 35.2127 46.3594 35.4067 46.317C35.6031 46.2723 35.8134 46.1993 36.0375 46.0981V46.7724C35.8388 46.8689 35.6378 46.9371 35.4345 46.9771C35.2311 47.0171 34.9989 47.0372 34.7379 47.0372ZM34.5889 43.62C34.3301 43.62 34.1222 43.7035 33.9651 43.8706C33.8103 44.0377 33.7178 44.2813 33.6878 44.6013H35.4275C35.4229 44.2789 35.3467 44.0353 35.1988 43.8706C35.0509 43.7035 34.8476 43.62 34.5889 43.62Z" fill="white"/>
<path d="M42.1471 45.5651C42.1471 46.024 41.9842 46.3841 41.6585 46.6453C41.3327 46.9065 40.8833 47.0372 40.3104 47.0372C39.7374 47.0372 39.2684 46.9465 38.9033 46.7653V45.9675C39.1344 46.0781 39.3793 46.1652 39.638 46.2287C39.8991 46.2923 40.1417 46.3241 40.3658 46.3241C40.6939 46.3241 40.9353 46.2605 41.0901 46.1334C41.2472 46.0063 41.3258 45.8357 41.3258 45.6216C41.3258 45.4286 41.2542 45.265 41.1109 45.1309C40.9677 44.9967 40.6719 44.8379 40.2237 44.6543C39.7616 44.4637 39.4359 44.246 39.2464 44.0012C39.057 43.7565 38.9623 43.4623 38.9623 43.1187C38.9623 42.688 39.1124 42.3491 39.4128 42.102C39.7131 41.8549 40.1163 41.7313 40.6223 41.7313C41.1074 41.7313 41.5903 41.8396 42.0709 42.0561L41.8075 42.7445C41.357 42.5515 40.955 42.455 40.6015 42.455C40.3335 42.455 40.1302 42.515 39.9915 42.635C39.8529 42.7527 39.7836 42.9092 39.7836 43.1046C39.7836 43.2387 39.8113 43.354 39.8668 43.4505C39.9222 43.5446 40.0135 43.6341 40.1406 43.7188C40.2676 43.8035 40.4963 43.9153 40.8267 44.0542C41.1987 44.2118 41.4713 44.3589 41.6446 44.4954C41.8179 44.6319 41.945 44.7861 42.0258 44.9579C42.1067 45.1297 42.1471 45.3321 42.1471 45.5651Z" fill="white"/>
<path d="M46.5119 45.0073C46.5119 45.6451 46.3514 46.1428 46.0302 46.5006C45.7091 46.8583 45.262 47.0372 44.689 47.0372C44.3309 47.0372 44.0144 46.9548 43.7395 46.79C43.4645 46.6253 43.2531 46.3888 43.1053 46.0805C42.9574 45.7722 42.8835 45.4145 42.8835 45.0073C42.8835 44.3742 43.0429 43.88 43.3617 43.5246C43.6806 43.1693 44.1299 42.9916 44.7098 42.9916C45.2643 42.9916 45.7033 43.174 46.0267 43.5388C46.3502 43.9012 46.5119 44.3907 46.5119 45.0073ZM43.7221 45.0073C43.7221 45.9087 44.0491 46.3594 44.7029 46.3594C45.3498 46.3594 45.6733 45.9087 45.6733 45.0073C45.6733 44.1154 45.3475 43.6694 44.696 43.6694C44.354 43.6694 44.1057 43.7847 43.9509 44.0153C43.7984 44.246 43.7221 44.5766 43.7221 45.0073Z" fill="white"/>
<path d="M48.3365 46.9665H47.5221V41.4736H48.3365V46.9665Z" fill="white"/>
<path d="M52.2785 46.9665L52.1641 46.4547H52.1225C52.0093 46.6359 51.8476 46.7783 51.6374 46.8818C51.4294 46.9854 51.1915 47.0372 50.9235 47.0372C50.4591 47.0372 50.1125 46.9195 49.8838 46.6841C49.6551 46.4488 49.5407 46.0922 49.5407 45.6145V43.0622H50.362V45.4698C50.362 45.7686 50.4221 45.9934 50.5422 46.144C50.6624 46.2923 50.8507 46.3664 51.1071 46.3664C51.4491 46.3664 51.6997 46.2629 51.8592 46.0558C52.0209 45.8463 52.1017 45.4968 52.1017 45.0073V43.0622H52.9196V46.9665H52.2785Z" fill="white"/>
<path d="M55.5794 46.3664C55.7781 46.3664 55.9768 46.3347 56.1754 46.2711V46.8959C56.0853 46.936 55.9687 46.9689 55.8254 46.9948C55.6845 47.023 55.5378 47.0372 55.3853 47.0372C54.6136 47.0372 54.2278 46.6229 54.2278 45.7945V43.6906H53.7045V43.3234L54.2659 43.0198L54.5432 42.1938H55.0457V43.0622H56.1373V43.6906H55.0457V45.7804C55.0457 45.9805 55.0942 46.1287 55.1912 46.2252C55.2906 46.3194 55.42 46.3664 55.5794 46.3664Z" fill="white"/>
<path d="M57.8302 46.9665H57.0158V43.0622H57.8302V46.9665ZM56.9673 42.0279C56.9673 41.8796 57.0065 41.7654 57.0851 41.6854C57.1659 41.6054 57.2803 41.5654 57.4282 41.5654C57.5714 41.5654 57.6823 41.6054 57.7609 41.6854C57.8417 41.7654 57.8822 41.8796 57.8822 42.0279C57.8822 42.1691 57.8417 42.2808 57.7609 42.3632C57.6823 42.4432 57.5714 42.4832 57.4282 42.4832C57.2803 42.4832 57.1659 42.4432 57.0851 42.3632C57.0065 42.2808 56.9673 42.1691 56.9673 42.0279Z" fill="white"/>
<path d="M62.4688 45.0073C62.4688 45.6451 62.3082 46.1428 61.9871 46.5006C61.6659 46.8583 61.2189 47.0372 60.6459 47.0372C60.2878 47.0372 59.9713 46.9548 59.6963 46.79C59.4214 46.6253 59.21 46.3888 59.0621 46.0805C58.9143 45.7722 58.8403 45.4145 58.8403 45.0073C58.8403 44.3742 58.9997 43.88 59.3186 43.5246C59.6374 43.1693 60.0868 42.9916 60.6667 42.9916C61.2212 42.9916 61.6601 43.174 61.9836 43.5388C62.307 43.9012 62.4688 44.3907 62.4688 45.0073ZM59.679 45.0073C59.679 45.9087 60.0059 46.3594 60.6597 46.3594C61.3067 46.3594 61.6301 45.9087 61.6301 45.0073C61.6301 44.1154 61.3043 43.6694 60.6528 43.6694C60.3109 43.6694 60.0625 43.7847 59.9077 44.0153C59.7552 44.246 59.679 44.5766 59.679 45.0073Z" fill="white"/>
<path d="M66.8509 46.9665H66.033V44.566C66.033 44.2648 65.973 44.04 65.8528 43.8918C65.735 43.7435 65.5467 43.6694 65.2879 43.6694C64.9437 43.6694 64.6919 43.7729 64.5325 43.98C64.373 44.1871 64.2933 44.5343 64.2933 45.0214V46.9665H63.4789V43.0622H64.1166L64.2309 43.5741H64.2725C64.3881 43.3881 64.5521 43.2446 64.7646 43.1434C64.9772 43.0422 65.2129 42.9916 65.4716 42.9916C66.3911 42.9916 66.8509 43.4682 66.8509 44.4213V46.9665Z" fill="white"/>
<path d="M73.4111 43.3658C73.4111 43.9047 73.2378 44.3178 72.8913 44.6049C72.5447 44.892 72.0514 45.0356 71.4115 45.0356H70.8847V46.9665H70.0564V41.8055H71.5154C72.1485 41.8055 72.6221 41.9372 72.9363 42.2008C73.2528 42.4644 73.4111 42.8527 73.4111 43.3658ZM70.8847 44.326H71.3248C71.7499 44.326 72.0618 44.2507 72.2605 44.1001C72.4592 43.9494 72.5586 43.7141 72.5586 43.394C72.5586 43.0975 72.4696 42.8763 72.2917 42.7304C72.1138 42.5844 71.8366 42.5115 71.46 42.5115H70.8847V44.326Z" fill="white"/>
<path d="M76.3515 42.9916C76.5156 42.9916 76.6507 43.0034 76.757 43.0269L76.6773 43.8C76.5618 43.7718 76.4417 43.7576 76.3169 43.7576C75.9911 43.7576 75.7266 43.8659 75.5233 44.0824C75.3223 44.2989 75.2218 44.5802 75.2218 44.9261V46.9665H74.4074V43.0622H75.045L75.1525 43.7506H75.1941C75.3211 43.5176 75.4863 43.3328 75.6896 43.1963C75.8953 43.0598 76.1159 42.9916 76.3515 42.9916Z" fill="white"/>
<path d="M80.9416 45.0073C80.9416 45.6451 80.781 46.1428 80.4599 46.5006C80.1388 46.8583 79.6917 47.0372 79.1187 47.0372C78.7606 47.0372 78.4441 46.9548 78.1692 46.79C77.8942 46.6253 77.6828 46.3888 77.535 46.0805C77.3871 45.7722 77.3132 45.4145 77.3132 45.0073C77.3132 44.3742 77.4726 43.88 77.7914 43.5246C78.1102 43.1693 78.5596 42.9916 79.1395 42.9916C79.694 42.9916 80.133 43.174 80.4564 43.5388C80.7799 43.9012 80.9416 44.3907 80.9416 45.0073ZM78.1518 45.0073C78.1518 45.9087 78.4788 46.3594 79.1326 46.3594C79.7795 46.3594 80.1029 45.9087 80.1029 45.0073C80.1029 44.1154 79.7772 43.6694 79.1257 43.6694C78.7837 43.6694 78.5354 43.7847 78.3806 44.0153C78.2281 44.246 78.1518 44.5766 78.1518 45.0073Z" fill="white"/>
<path d="M82.8251 46.9665L81.3695 43.0622H82.229L83.0088 45.3321C83.1428 45.7133 83.2236 46.0216 83.2513 46.257H83.2791C83.2999 46.0875 83.3807 45.7792 83.5217 45.3321L84.3014 43.0622H85.1678L83.7053 46.9665H82.8251Z" fill="white"/>
<path d="M86.6354 46.9665H85.821V43.0622H86.6354V46.9665ZM85.7725 42.0279C85.7725 41.8796 85.8118 41.7654 85.8903 41.6854C85.9712 41.6054 86.0855 41.5654 86.2334 41.5654C86.3767 41.5654 86.4875 41.6054 86.5661 41.6854C86.647 41.7654 86.6874 41.8796 86.6874 42.0279C86.6874 42.1691 86.647 42.2808 86.5661 42.3632C86.4875 42.4432 86.3767 42.4832 86.2334 42.4832C86.0855 42.4832 85.9712 42.4432 85.8903 42.3632C85.8118 42.2808 85.7725 42.1691 85.7725 42.0279Z" fill="white"/>
<path d="M89.1669 47.0372C88.6887 47.0372 88.3156 46.8606 88.0476 46.5076C87.7796 46.1546 87.6456 45.6592 87.6456 45.0214C87.6456 44.3813 87.7807 43.8835 88.051 43.5282C88.3236 43.1704 88.7002 42.9916 89.1808 42.9916C89.6845 42.9916 90.068 43.181 90.3314 43.5599H90.373C90.3337 43.2799 90.314 43.0587 90.314 42.8963V41.4736H91.1319V46.9665H90.4942L90.3522 46.4547H90.314C90.053 46.843 89.6706 47.0372 89.1669 47.0372ZM89.3853 46.3664C89.7203 46.3664 89.964 46.2711 90.1165 46.0805C90.269 45.8875 90.3475 45.5757 90.3522 45.145V45.0285C90.3522 44.5366 90.2736 44.1871 90.1165 43.98C89.9594 43.7729 89.7133 43.6694 89.3783 43.6694C89.0918 43.6694 88.8712 43.7882 88.7164 44.0259C88.5616 44.2613 88.4842 44.5978 88.4842 45.0356C88.4842 45.4686 88.5593 45.7992 88.7095 46.0275C88.8597 46.2535 89.0849 46.3664 89.3853 46.3664Z" fill="white"/>
<path d="M94.0412 47.0372C93.4451 47.0372 92.9784 46.8606 92.6411 46.5076C92.3061 46.1523 92.1386 45.6639 92.1386 45.0426C92.1386 44.4048 92.2945 43.9035 92.6064 43.5388C92.9183 43.174 93.3469 42.9916 93.8922 42.9916C94.3981 42.9916 94.7978 43.1481 95.0912 43.4611C95.3847 43.7741 95.5314 44.2048 95.5314 44.7531V45.2015H92.9773C92.9888 45.5804 93.0893 45.8722 93.2788 46.0769C93.4682 46.2793 93.7351 46.3805 94.0793 46.3805C94.3057 46.3805 94.516 46.3594 94.71 46.317C94.9064 46.2723 95.1167 46.1993 95.3408 46.0981V46.7724C95.1421 46.8689 94.9411 46.9371 94.7378 46.9771C94.5344 47.0171 94.3023 47.0372 94.0412 47.0372ZM93.8922 43.62C93.6334 43.62 93.4255 43.7035 93.2684 43.8706C93.1136 44.0377 93.0212 44.2813 92.9911 44.6013H94.7308C94.7262 44.2789 94.65 44.0353 94.5021 43.8706C94.3542 43.7035 94.1509 43.62 93.8922 43.62Z" fill="white"/>
<path d="M98.4718 42.9916C98.6359 42.9916 98.771 43.0034 98.8773 43.0269L98.7976 43.8C98.6821 43.7718 98.5619 43.7576 98.4372 43.7576C98.1114 43.7576 97.8469 43.8659 97.6436 44.0824C97.4426 44.2989 97.3421 44.5802 97.3421 44.9261V46.9665H96.5277V43.0622H97.1653L97.2728 43.7506H97.3143C97.4414 43.5176 97.6066 43.3328 97.8099 43.1963C98.0155 43.0598 98.2362 42.9916 98.4718 42.9916Z" fill="white"/>
</svg>
