<svg width="82" height="81" viewBox="0 0 82 81" fill="none" xmlns="http://www.w3.org/2000/svg">
<rect width="82" height="81" rx="19" fill="#4CCD25"/>
<mask id="mask0_118_766" style="mask-type:luminance" maskUnits="userSpaceOnUse" x="20" y="18" width="42" height="42">
<path d="M57.2917 19.833H24.7084C23.9459 19.833 23.2146 20.1359 22.6754 20.6751C22.1363 21.2142 21.8334 21.9455 21.8334 22.708V55.2913C21.8334 56.0538 22.1363 56.7851 22.6754 57.3243C23.2146 57.8634 23.9459 58.1663 24.7084 58.1663H57.2917C58.0542 58.1663 58.7855 57.8634 59.3246 57.3243C59.8638 56.7851 60.1667 56.0538 60.1667 55.2913V22.708C60.1667 21.9455 59.8638 21.2142 59.3246 20.6751C58.7855 20.1359 58.0542 19.833 57.2917 19.833Z" fill="white" stroke="white" stroke-width="2" stroke-linejoin="round"/>
<path d="M29.5 34.2598C32.6861 30.4264 36.5195 28.5098 41 28.5098C45.4799 28.5098 49.3132 30.4264 52.5 34.2598" stroke="black" stroke-width="2" stroke-linecap="round"/>
<path d="M41 45.708C41.7625 45.708 42.4938 45.4051 43.0329 44.8659C43.5721 44.3268 43.875 43.5955 43.875 42.833C43.875 42.0705 43.5721 41.3392 43.0329 40.8001C42.4938 40.2609 41.7625 39.958 41 39.958C40.2375 39.958 39.5062 40.2609 38.9671 40.8001C38.4279 41.3392 38.125 42.0705 38.125 42.833C38.125 43.5955 38.4279 44.3268 38.9671 44.8659C39.5062 45.4051 40.2375 45.708 41 45.708Z" fill="black"/>
<path d="M36.2084 36.125L41.0077 42.8333" stroke="black" stroke-width="2" stroke-linecap="round"/>
</mask>
<g mask="url(#mask0_118_766)">
<path d="M18 16H64V62H18V16Z" fill="white"/>
</g>
</svg>
